<svg xmlns="http://www.w3.org/2000/svg" width="32.707" height="25.992" viewBox="0 0 32.707 25.992">
  <g id="Group_13614" data-name="Group 13614" transform="translate(-526 -57.421)">
    <g id="Group_13613" data-name="Group 13613" transform="translate(526 57.421)">
      <path id="Path_5221" data-name="Path 5221" d="M1.111,267.505A1.5,1.5,0,0,0,.526,270.1a1.5,1.5,0,0,0,.585-2.592" transform="translate(0 -255.392)" fill="#41ab3b"/>
      <path id="Path_5222" data-name="Path 5222" d="M27.607,316.982a1.8,1.8,0,0,0-2.971-1.147,1.8,1.8,0,0,0,2.971,1.147" transform="translate(-23.52 -301.11)" fill="#41ab3b"/>
      <path id="Path_5223" data-name="Path 5223" d="M175.355,355.347a1.472,1.472,0,1,0-.769,1.312,1.472,1.472,0,0,0,.769-1.312" transform="translate(-165.23 -339.02)" fill="#41ab3b"/>
      <path id="Path_5224" data-name="Path 5224" d="M133.861,221.748a1.283,1.283,0,1,0-1.132.69,1.283,1.283,0,0,0,1.132-.69" transform="translate(-125.633 -211.059)" fill="#41ab3b"/>
      <path id="Path_5225" data-name="Path 5225" d="M265.71,142.753a1.585,1.585,0,0,0-2.7-.738,1.584,1.584,0,0,0,2.7.738" transform="translate(-251.096 -135.104)" fill="#41ab3b"/>
      <path id="Path_5226" data-name="Path 5226" d="M262.04,75.068a1.585,1.585,0,0,0-2.308-1.592,1.585,1.585,0,0,0,2.308,1.592" transform="translate(-247.961 -69.976)" fill="#41ab3b"/>
      <path id="Path_5227" data-name="Path 5227" d="M264.95,369.093a1.567,1.567,0,1,0-.236,1.6,1.567,1.567,0,0,0,.236-1.6" transform="translate(-251.154 -352.35)" fill="#41ab3b"/>
      <path id="Path_5228" data-name="Path 5228" d="M653.883,159.893a1.859,1.859,0,1,0,.545,1.842,1.859,1.859,0,0,0-.545-1.842" transform="translate(-622.904 -152.653)" fill="#41ab3b"/>
      <path id="Path_5229" data-name="Path 5229" d="M561.851,192.127a1.859,1.859,0,1,0-1.553,1.129,1.859,1.859,0,0,0,1.553-1.129" transform="translate(-533.282 -182.612)" fill="#41ab3b"/>
      <path id="Path_5230" data-name="Path 5230" d="M514.521,242.662a1.859,1.859,0,1,0-.826,1.734,1.859,1.859,0,0,0,.826-1.734" transform="translate(-488.594 -231.454)" fill="#41ab3b"/>
      <path id="Path_5231" data-name="Path 5231" d="M542.925,307.963a1.544,1.544,0,1,0,.995,1.246,1.544,1.544,0,0,0-.995-1.246" transform="translate(-517.718 -294.018)" fill="#41ab3b"/>
      <path id="Path_5232" data-name="Path 5232" d="M686.316,242.534a1.544,1.544,0,1,0,.995,1.246,1.543,1.543,0,0,0-.995-1.246" transform="translate(-654.617 -231.552)" fill="#41ab3b"/>
      <path id="Path_5233" data-name="Path 5233" d="M638.972,344.5a1.544,1.544,0,1,0,.995,1.246,1.543,1.543,0,0,0-.995-1.246" transform="translate(-609.417 -328.899)" fill="#41ab3b"/>
      <path id="Path_5234" data-name="Path 5234" d="M653.5,305.723a1.289,1.289,0,1,0,1.312.23,1.289,1.289,0,0,0-1.312-.23" transform="translate(-623.874 -291.797)" fill="#41ab3b"/>
      <path id="Path_5235" data-name="Path 5235" d="M576.789,377.807a1.544,1.544,0,1,0,.253,1.574,1.544,1.544,0,0,0-.253-1.574" transform="translate(-549.348 -360.7)" fill="#41ab3b"/>
      <path id="Path_5236" data-name="Path 5236" d="M602.315,313.677a1.013,1.013,0,1,0,.166,1.034,1.014,1.014,0,0,0-.166-1.034" transform="translate(-574.173 -299.474)" fill="#41ab3b"/>
      <path id="Path_5237" data-name="Path 5237" d="M477.241,64.773a1.013,1.013,0,1,0,.166,1.034,1.013,1.013,0,0,0-.166-1.034" transform="translate(-454.762 -61.84)" fill="#41ab3b"/>
      <path id="Path_5238" data-name="Path 5238" d="M519.471,54.66a1.013,1.013,0,1,0,.812.661,1.013,1.013,0,0,0-.812-.661" transform="translate(-495.695 -52.185)" fill="#41ab3b"/>
      <path id="Path_5239" data-name="Path 5239" d="M580.358,56.062a1.013,1.013,0,0,0,1.17,1.359,1.013,1.013,0,0,0-1.17-1.359" transform="translate(-554.012 -53.499)" fill="#41ab3b"/>
      <path id="Path_5240" data-name="Path 5240" d="M644.857,246.808a1.013,1.013,0,1,0,.166,1.034,1.013,1.013,0,0,0-.166-1.034" transform="translate(-614.788 -235.632)" fill="#41ab3b"/>
      <path id="Path_5241" data-name="Path 5241" d="M37.014,195.033a1.8,1.8,0,0,0,.242,3.176,1.8,1.8,0,0,0-.242-3.176" transform="translate(-34.534 -186.202)" fill="#41ab3b"/>
      <path id="Path_5242" data-name="Path 5242" d="M199.929,406.8a1.369,1.369,0,1,0-1.345.437,1.369,1.369,0,0,0,1.345-.437" transform="translate(-188.625 -387.401)" fill="#41ab3b"/>
      <path id="Path_5243" data-name="Path 5243" d="M92.779,296.124a1.207,1.207,0,0,0,1,1.89,1.207,1.207,0,0,0-1-1.89" transform="translate(-88.376 -282.715)" fill="#41ab3b"/>
      <path id="Path_5244" data-name="Path 5244" d="M92.445,170.951a1.386,1.386,0,1,0-.519,1.335,1.386,1.386,0,0,0,.519-1.335" transform="translate(-86.386 -163.091)" fill="#41ab3b"/>
      <path id="Path_5245" data-name="Path 5245" d="M41.4,127.053a1.386,1.386,0,0,0-.862,2.3,1.386,1.386,0,0,0,.862-2.3" transform="translate(-38.372 -121.3)" fill="#41ab3b"/>
      <path id="Path_5246" data-name="Path 5246" d="M82.612,76.959a1.386,1.386,0,0,0-2.146,1.187,1.386,1.386,0,0,0,2.146-1.187" transform="translate(-76.823 -73.258)" fill="#41ab3b"/>
      <path id="Path_5247" data-name="Path 5247" d="M155.4,71.922a.953.953,0,0,0-1.637.406.953.953,0,0,0,1.637-.406" transform="translate(-146.797 -68.361)" fill="#41ab3b"/>
      <path id="Path_5248" data-name="Path 5248" d="M270.042,25.5a1.182,1.182,0,0,0-2.03.5,1.182,1.182,0,0,0,2.03-.5" transform="translate(-255.876 -23.972)" fill="#41ab3b"/>
      <path id="Path_5249" data-name="Path 5249" d="M205.51,37.884a1.578,1.578,0,0,0-1.673,2.235,1.578,1.578,0,0,0,1.673-2.235" transform="translate(-194.462 -36.151)" fill="#41ab3b"/>
      <path id="Path_5250" data-name="Path 5250" d="M334.307.019a1.578,1.578,0,0,0-1.673,2.235A1.578,1.578,0,0,0,334.307.019" transform="translate(-317.427 0)" fill="#41ab3b"/>
      <path id="Path_5251" data-name="Path 5251" d="M396,1.02a1.578,1.578,0,0,0,1.841,2.1A1.578,1.578,0,0,0,396,1.02" transform="translate(-377.973 -0.933)" fill="#41ab3b"/>
      <path id="Path_5252" data-name="Path 5252" d="M463.718,8.059a1.578,1.578,0,0,0,2.264,1.635,1.578,1.578,0,0,0-2.264-1.635" transform="translate(-442.707 -7.538)" fill="#41ab3b"/>
      <path id="Path_5253" data-name="Path 5253" d="M160.564,169.281a.924.924,0,1,0,.174.939.924.924,0,0,0-.174-.939" transform="translate(-152.521 -161.616)" fill="#41ab3b"/>
      <path id="Path_5254" data-name="Path 5254" d="M229.393,101.293a.924.924,0,1,0,.935.2.925.925,0,0,0-.935-.2" transform="translate(-218.976 -96.657)" fill="#41ab3b"/>
      <path id="Path_5255" data-name="Path 5255" d="M121.608,120.518a1.249,1.249,0,1,0,1.269-.236,1.249,1.249,0,0,0-1.269.236" transform="translate(-116.102 -114.76)" fill="#41ab3b"/>
      <path id="Path_5256" data-name="Path 5256" d="M214.925,274.1a1.72,1.72,0,1,0-1.77.158,1.719,1.719,0,0,0,1.77-.158" transform="translate(-202.582 -260.097)" fill="#41ab3b"/>
      <path id="Path_5257" data-name="Path 5257" d="M279.9,210.052a1.72,1.72,0,1,0-1.77.158,1.719,1.719,0,0,0,1.77-.158" transform="translate(-264.62 -198.951)" fill="#41ab3b"/>
      <path id="Path_5258" data-name="Path 5258" d="M201.9,130.682a1.72,1.72,0,1,0-1.639-.685,1.719,1.719,0,0,0,1.639.685" transform="translate(-190.874 -122.404)" fill="#41ab3b"/>
      <path id="Path_5259" data-name="Path 5259" d="M104.239,350.625a1.767,1.767,0,0,0,2.226-2.194,1.766,1.766,0,0,0-2.226,2.194" transform="translate(-99.447 -332.576)" fill="#41ab3b"/>
      <path id="Path_5260" data-name="Path 5260" d="M438.188,152.409a1.525,1.525,0,1,0,1.421.68,1.525,1.525,0,0,0-1.421-.68" transform="translate(-418.166 -145.501)" fill="#41ab3b"/>
      <path id="Path_5261" data-name="Path 5261" d="M401.107,213.256a1.525,1.525,0,1,0,.965,1.245,1.525,1.525,0,0,0-.965-1.245" transform="translate(-382.313 -203.6)" fill="#41ab3b"/>
      <path id="Path_5262" data-name="Path 5262" d="M383.225,131.657a1.525,1.525,0,1,0,.51,1.491,1.525,1.525,0,0,0-.51-1.491" transform="translate(-364.808 -125.696)" fill="#41ab3b"/>
      <path id="Path_5263" data-name="Path 5263" d="M533.149,108.222a1.525,1.525,0,1,0,.237,1.557,1.525,1.525,0,0,0-.237-1.557" transform="translate(-507.688 -103.322)" fill="#41ab3b"/>
      <path id="Path_5264" data-name="Path 5264" d="M615.493,85.444A1.525,1.525,0,1,0,615.73,87a1.525,1.525,0,0,0-.237-1.557" transform="translate(-586.303 -81.575)" fill="#41ab3b"/>
      <path id="Path_5265" data-name="Path 5265" d="M358.94,57.508A1.525,1.525,0,1,0,359.45,59a1.525,1.525,0,0,0-.51-1.491" transform="translate(-341.622 -54.904)" fill="#41ab3b"/>
      <path id="Path_5266" data-name="Path 5266" d="M203.276,142.181q-2.171-4.761-4.759-9.312c-1.436-2.535-1.014-4.464,1.372-6.191.806-.583,1.692-1.056,2.778-1.725a14.97,14.97,0,0,0-3.494,1.372c-.5-.3,0-.9-.524-1.2-.244,2.824-3.911,4.117-2.79,7.657a6.508,6.508,0,0,1-3.512-5.279,9.833,9.833,0,0,0-1.512-4.479c.85,3.54.053,7.427,2.5,10.656a37.924,37.924,0,0,0-9.339-.763c.6.471,1.623.161,2.107.223,6.517.833,11.887,3.409,14.8,9.718a1.211,1.211,0,0,0,.346.543h2.462c.2-.315-.268-.86-.434-1.224" transform="translate(-175.661 -117.457)" fill="#177233"/>
      <path id="Path_5267" data-name="Path 5267" d="M54.535,271.26a.952.952,0,0,0-.371,1.643.952.952,0,0,0,.371-1.643" transform="translate(-51.393 -258.977)" fill="#41ab3b"/>
      <path id="Path_5268" data-name="Path 5268" d="M138.964,281.046a1.235,1.235,0,1,0,1.219.378,1.235,1.235,0,0,0-1.219-.378" transform="translate(-132.597 -268.286)" fill="#41ab3b"/>
      <path id="Path_5269" data-name="Path 5269" d="M331.335,398.806a1.472,1.472,0,1,0-.769,1.312,1.472,1.472,0,0,0,.769-1.312" transform="translate(-314.147 -380.511)" fill="#41ab3b"/>
      <path id="Path_5270" data-name="Path 5270" d="M405.987,422.433a1.068,1.068,0,1,0-1.1.057,1.068,1.068,0,0,0,1.1-.057" transform="translate(-386.013 -402.28)" fill="#41ab3b"/>
      <path id="Path_5271" data-name="Path 5271" d="M301.585,287.153a1.72,1.72,0,1,0-1.77.158,1.719,1.719,0,0,0,1.77-.158" transform="translate(-285.318 -272.561)" fill="#41ab3b"/>
      <path id="Path_5272" data-name="Path 5272" d="M88.71,230.451a1.207,1.207,0,0,0,1,1.89,1.207,1.207,0,0,0-1-1.89" transform="translate(-84.492 -220.016)" fill="#41ab3b"/>
      <path id="Path_5273" data-name="Path 5273" d="M439.589,456.953a1.019,1.019,0,1,0-1.052.055,1.019,1.019,0,0,0,1.052-.055" transform="translate(-418.166 -435.283)" fill="#41ab3b"/>
      <path id="Path_5274" data-name="Path 5274" d="M287.843,431.024a1,1,0,1,0-.951,0,.965.965,0,0,0,.951,0" transform="translate(-273.4 -410.632)" fill="#41ab3b"/>
      <path id="Path_5275" data-name="Path 5275" d="M202.854,194.2h-1.082v-1.082h-.837V194.2h-1.082v.837h1.082v1.082h.837V195.04h1.082Z" transform="translate(-190.803 -184.376)" fill="#76ce07"/>
      <path id="Path_5276" data-name="Path 5276" d="M449.421,357.432h-.688v-.688H448.2v.688h-.688v.532h.688v.688h.532v-.688h.688Z" transform="translate(-427.25 -340.591)" fill="#fff"/>
      <path id="Path_5277" data-name="Path 5277" d="M416.135,74.673h-.9v-.9h-.693v.9h-.9v.693h.9v.9h.693v-.9h.9Z" transform="translate(-394.918 -70.436)" fill="#76ce07"/>
      <path id="Path_5278" data-name="Path 5278" d="M584.248,247.891h-.9v-.9h-.693v.9h-.9v.693h.9v.9h.693v-.9h.9Z" transform="translate(-555.419 -235.81)" fill="#76ce07"/>
    </g>
    <path id="Path_5279" data-name="Path 5279" d="M140.238,521.862l-.5-2.384h.623l.186,1.114c.035.251.074.5.11.754h.016c.052-.251.106-.506.16-.754l.289-1.114h.516l.289,1.114c.054.242.108.5.162.754h.016c.035-.254.073-.509.108-.754l.186-1.114h.581l-.477,2.384h-.764l-.263-1.083c-.043-.184-.079-.375-.108-.553h-.016c-.033.178-.066.369-.109.553l-.255,1.083Zm3.137-2.384h1.685v.452h-1.077v.479h.917v.452h-.917v.549H145.1v.452h-1.726Zm3,1.206a1.253,1.253,0,0,1,2.078-.94l-.32.346a.717.717,0,0,0-.475-.19.684.684,0,0,0-.66.766c0,.49.257.775.65.775a.746.746,0,0,0,.526-.223l.32.338a1.252,1.252,0,0,1-2.12-.872Zm3.049-1.206h.727l.844,2.384h-.643l-.165-.568h-.82l-.166.568h-.622Zm.641,1.4-.064-.221c-.075-.238-.147-.52-.218-.769h-.016c-.065.252-.137.531-.212.769l-.065.221Zm2.153.129h-.334v.858h-.608v-2.384h.968c.57,0,1.038.176,1.038.742a.7.7,0,0,1-.479.688l.608.953h-.68Zm-.023-.428c.32,0,.492-.121.492-.356s-.172-.314-.492-.314h-.311v.67Zm1.631-1.1h1.685v.452h-1.077v.479h.917v.452h-.917v.549h1.118v.452h-1.726Z" transform="translate(392.588 -438.493)" fill="#034200"/>
  </g>
</svg>
