<svg xmlns="http://www.w3.org/2000/svg" width="57.972" height="37.793" viewBox="0 0 57.972 37.793">
  <g id="Group_13604" data-name="Group 13604" transform="translate(-1035.161 -1262.4)">
    <path id="Path_5313" data-name="Path 5313" d="M604.931,162.693a1.476,1.476,0,0,1-1.476-1.476v-4.371l-4.611-.13a1.476,1.476,0,1,1,.083-2.951l7.479.211v7.241a1.476,1.476,0,0,1-1.476,1.476" transform="translate(486.123 1109.136)" fill="#76ce07" stroke="rgba(0,0,0,0)" stroke-width="1"/>
    <path id="Path_5314" data-name="Path 5314" d="M510.259,174.479a1.476,1.476,0,0,1-1.044-2.519l5.5-5.5a1.476,1.476,0,1,1,2.088,2.087l-5.5,5.5a1.472,1.472,0,0,1-1.044.432" transform="translate(540.738 1101.576)" fill="#76ce07" stroke="rgba(0,0,0,0)" stroke-width="1"/>
    <path id="Path_5315" data-name="Path 5315" d="M580.189,213.753a1.476,1.476,0,0,1-1.044-2.519l8.142-8.141a1.476,1.476,0,0,1,2.087,2.087l-8.141,8.141a1.47,1.47,0,0,1-1.044.433" transform="translate(497.645 1079.005)" fill="#76ce07" stroke="rgba(0,0,0,0)" stroke-width="1"/>
    <path id="Path_5316" data-name="Path 5316" d="M474.143,190.768a1.476,1.476,0,0,1-1.044-2.519l19.55-19.55a1.475,1.475,0,0,1,2.087,0l9.052,9.052L527,154.54a1.476,1.476,0,0,1,2.087,2.087l-24.254,24.255a1.476,1.476,0,0,1-2.087,0l-9.052-9.052-18.506,18.506a1.472,1.472,0,0,1-1.044.433" transform="translate(562.994 1108.925)" fill="#76ce07" stroke="rgba(0,0,0,0)" stroke-width="1"/>
  </g>
</svg>
