<svg xmlns="http://www.w3.org/2000/svg" xmlns:xlink="http://www.w3.org/1999/xlink" width="640" height="380" viewBox="0 0 640 380">
  <defs>
    <clipPath id="clip-path">
      <rect id="Rectangle_1218" data-name="Rectangle 1218" width="640" height="380" transform="translate(0 1372)" fill="#fff"/>
    </clipPath>
    <clipPath id="clip-path-2">
      <path id="Path_5330" data-name="Path 5330" d="M5337.17,983.107c-164.853,39.919-324.133,113.721-473.42,219.362-141.221,99.933-277.36,234.887-416.2,412.573-133.866,171.325-255.257,363.3-356.348,528.5l-1.413,2.31c-89.879,146.88-182.818,298.757-288.5,413.753-120,130.58-236.821,189.834-357.119,181.141-38.255-2.766-81.136-22.213-131.089-59.456-45.015-33.559-94.986-81.071-152.767-145.259-107.992-119.962-226.3-279.368-351.562-448.135-145.531-196.078-296.014-398.833-445.937-560.949-81.182-87.787-154.012-154.9-222.65-205.189-76.667-56.167-148.63-90.85-213.889-103.086-42.621-7.991-86.966-11.7-132.811-11.7-351.164,0-786.448,217.85-1144.268,396.936-80.377,40.227-158.364,79.259-230.718,113.372v4.421c72.877-34.322,151.477-73.661,232.507-114.216,404-202.2,906.789-453.841,1274.555-384.886,122.415,22.954,264.488,123.392,434.337,307.057,149.776,161.959,300.2,364.628,445.661,560.621,125.319,168.844,243.684,328.324,351.8,448.425,57.958,64.384,108.12,112.072,153.346,145.792,50.586,37.71,94.154,57.415,133.194,60.235q11.5.834,22.991.831c56.688,0,113.295-15.134,168.583-45.109,56.095-30.416,111.3-75.6,168.777-138.143,105.948-115.284,198.988-267.33,288.967-414.37l1.415-2.312c205.74-336.213,452-713.84,771.445-939.894C5039.083,1083.3,5227.5,1003.91,5418.478,970.767v-4.509q-40.671,7.012-81.308,16.849" fill="#fff"/>
    </clipPath>
    <clipPath id="clip-path-3">
      <path id="Path_5331" data-name="Path 5331" d="M5150.337,1108.865a1392.325,1392.325,0,0,0-471.98,262.339c-59.159,49.907-117.312,106.98-172.845,169.638-151.744,172-283.79,375.641-428.4,604.745-37.218,58.882-77.065,121.429-119.033,181.9-138.935,199.248-311.611,399.022-538.986,370.033-79.907-10.189-177.054-73.227-305.727-198.386-114.709-111.574-239.228-257.646-371.058-412.3C2598.215,1917.8,2449.21,1743,2299.885,1598c-82.2-79.824-149.3-137.886-211.159-182.729-74.062-53.691-139.682-87.47-200.612-103.266-73.986-19.182-157.514-26.73-248.258-22.438-81.653,3.865-172.195,17.487-269.107,40.49-198.077,47.01-397.557,126.461-549.213,190.424-59.947,25.285-118.732,50.893-175.583,75.659-79.371,34.576-156.234,68.061-227.475,96.74v4.063c71.682-28.824,149.064-62.533,228.981-97.349,56.84-24.758,115.615-50.365,175.543-75.638,351.575-148.286,752.946-288.993,1064.166-208.3,140.914,36.535,293.181,171.528,410.091,285.054,149.2,144.874,298.145,319.6,442.186,488.573,131.888,154.717,256.463,300.855,371.3,412.554,61.564,59.88,115.114,104.8,163.71,137.322,54.3,36.34,101.46,56.654,144.17,62.1a353.639,353.639,0,0,0,44.878,2.882c84.511,0,166.329-31.1,248.807-94.356,78.49-60.194,157.57-149.211,248.872-280.146,42.011-60.535,81.885-123.119,119.125-182.034,144.518-228.967,276.474-432.476,428.031-604.264,111.777-126.115,228.386-224.537,356.486-300.887a1398.664,1398.664,0,0,1,286.676-130,1235.733,1235.733,0,0,1,266.982-55.543v-3.515a1240.022,1240.022,0,0,0-268.142,55.472" fill="#fff"/>
    </clipPath>
    <clipPath id="clip-path-4">
      <path id="Path_5332" data-name="Path 5332" d="M5145.11,1176.016c-101.086,23.99-193.679,56.687-283.073,99.955-136.52,66.076-255.794,155.132-364.637,272.257-149.516,160.892-279.171,360.505-404.557,553.543q-14.889,22.924-29.813,45.868c-35.892,55-77.91,118.712-122.4,178.957-191.976,259.973-360.563,361.039-546.625,327.7-89.5-16.037-196.334-78.307-336.207-195.972-124.583-104.8-258.742-239.5-400.778-382.1-130.1-130.627-264.642-265.7-400.329-386.052-79.553-70.563-145.657-127.219-209.689-174.376-74.5-54.861-138.957-90.989-197.066-110.447-71.411-23.912-151.4-37.834-237.756-41.374-78.227-3.206-164.336,2.007-255.939,15.5-149.851,22.079-315.256,65.37-520.542,136.238-67.626,23.348-133.937,47.621-198.067,71.092-76.9,28.147-150.651,55.142-219.154,77.746v3.717c68.883-22.692,143.045-49.836,220.371-78.139,64.114-23.468,130.41-47.734,198-71.069,307.532-106.17,700.475-214.661,1011.959-110.357,126.6,42.39,258.557,153.75,405.53,284.112,135.607,120.281,270.1,255.314,400.172,385.9,142.093,142.66,276.3,277.41,401.007,382.312,66.85,56.236,125.267,99.1,178.591,131.053,59.534,35.673,111.631,57.16,159.269,65.7a387.221,387.221,0,0,0,68.484,6.215c77.3,0,151.972-24.338,226.542-73.588,82.316-54.363,163.365-137.521,255.071-261.707,44.544-60.32,86.595-124.087,122.516-179.124q14.928-22.939,29.816-45.876c125.3-192.912,254.873-392.393,404.181-553.06,108.539-116.8,227.468-205.6,363.586-271.481,89.16-43.156,181.518-75.767,282.348-99.7a1236.254,1236.254,0,0,1,272.553-33.274v-3.435a1243.808,1243.808,0,0,0-273.369,33.266" fill="#fff"/>
    </clipPath>
    <clipPath id="clip-path-5">
      <path id="Path_5333" data-name="Path 5333" d="M5139.881,1243.18c-101.687,14.9-192.849,37.654-278.7,69.562-68.546,25.477-130.327,55.954-188.873,93.173-65.448,41.61-125.317,90.578-183.024,149.709C4347,1701.413,4225.448,1884.346,4107.9,2061.256c-19.274,29.01-39.206,59.006-58.958,88.437-38.577,57.272-80.513,118.234-125.763,176.017C3734,2567.289,3563.057,2655.3,3368.9,2611.075c-105.686-24.074-230.205-89.51-391.862-205.932-143.918-103.646-298.1-233.834-461.331-371.666-98.222-82.938-199.789-168.7-302.2-251.137-19.823-15.955-39.626-32.064-58.775-47.646-120.893-98.362-235.081-191.269-342.985-236-68.855-28.548-145.308-48.755-227.238-60.06-74.873-10.33-156.568-13.53-242.818-9.508-145.27,6.775-306.144,33.542-491.815,81.83-77.04,20.034-152.66,42.115-225.79,63.467-72.136,21.062-141.211,41.23-205.6,57.678v3.409c64.684-16.5,134.067-36.756,206.528-57.912,73.107-21.347,148.7-43.417,225.7-63.441,409.248-106.435,723.191-110.495,959.77-12.41,107.459,44.554,221.464,137.311,342.165,235.517,19.153,15.583,38.959,31.7,58.787,47.658,102.385,82.411,203.936,168.16,302.145,251.085,163.283,137.875,317.509,268.1,461.53,371.823,77.193,55.592,144.87,98.831,206.9,132.188,69.206,37.217,130.1,61.515,186.166,74.286a427.221,427.221,0,0,0,95.134,11.061c68.964,0,135.4-18.134,201.094-54.662,84.791-47.148,170.294-126.618,261.392-242.949,45.316-57.865,87.29-118.887,125.9-176.21,19.759-29.44,39.692-59.44,58.97-88.455,117.464-176.783,238.926-359.584,381-505.151,109-111.681,226.782-188.607,370.683-242.091,85.63-31.827,176.574-54.525,278.028-69.389,90.068-13.2,182.969-16.24,278.116-9.18v-3.318q-49.825-3.687-98.809-3.689a1239.411,1239.411,0,0,0-179.788,12.913" fill="#fff"/>
    </clipPath>
    <clipPath id="clip-path-6">
      <path id="Path_5334" data-name="Path 5334" d="M5134.647,1310.358c-104.389,5.295-191.56,17.742-274.325,39.177-149.011,38.587-269.49,106.424-379.157,213.487-138.392,135.1-254.834,306.95-367.444,473.14-25.728,37.971-52.332,77.232-78.87,115.588-36.915,53.119-81.123,115.223-129.13,173.082-185.566,223.657-358.878,298.607-561.953,243.019-321.742-88.066-738.663-378.213-1173.459-693.331-46.16-33.454-90.848-68.155-134.066-101.711-92.086-71.5-179.063-139.041-262.716-180.775-235.642-117.564-541.635-146.443-909.482-85.833-88.241,14.539-175.109,33.157-259.115,51.158-65.32,14-127.815,27.393-186.452,37.953v3.084c59.167-10.61,121.983-24.072,187.1-38.027,83.97-18,170.8-36.6,258.969-51.132,367.194-60.5,672.557-31.718,907.61,85.551,83.379,41.6,170.242,109.044,262.2,180.45,43.237,33.572,87.946,68.289,134.149,101.774,435.033,315.292,852.21,605.6,1174.453,693.807,43.245,11.837,85.008,17.768,125.666,17.768,59.21,0,116.074-12.58,171.744-37.819,88.331-40.045,175.9-113.307,267.72-223.971,48.081-57.95,92.339-120.12,129.291-173.292,26.549-38.372,53.158-77.64,78.892-115.616,112.521-166.065,228.875-337.779,367.042-472.665,109.27-106.673,229.312-174.263,377.781-212.711,82.558-21.38,169.531-33.8,273.708-39.081,91.756-4.651,185.852.834,283.676,16.678v-2.937c-75.714-12.22-150.078-18.364-221.981-18.364q-31.245,0-61.85,1.549" fill="#fff"/>
    </clipPath>
    <clipPath id="clip-path-7">
      <path id="Path_5335" data-name="Path 5335" d="M4859.454,1386.347c-71.489,10.43-134.72,28.2-193.306,54.315-69.317,30.9-132.482,73.348-193.106,129.764-136.344,126.886-249.369,290.734-358.672,449.188-30.464,44.161-61.964,89.827-93.613,134.2-34.994,48.831-81.682,112.3-132.5,170.151-183.661,209.086-354.019,269.1-569.633,200.669-276.926-87.89-701.73-241.348-1191.5-557.921-68.534-44.3-132.713-93.624-194.78-141.328-68.71-52.808-133.611-102.686-197.05-140-124.7-73.351-267.057-125.968-423.13-156.39-137.881-26.873-283.879-36.134-433.943-27.524-101.326,5.817-201.666,19.342-298.7,32.423-55.068,7.424-109.164,14.717-161.041,20.154v2.91c51.471-5.42,105.469-12.7,161.421-20.243,96.983-13.074,197.268-26.594,298.487-32.4,225.891-12.963,557.676,8.355,855.465,183.525,63.289,37.229,128.12,87.057,196.758,139.808,62.111,47.737,126.338,97.1,194.969,141.461,210.964,136.361,421.182,250.956,642.669,350.33,171.731,77.053,351.481,145.061,549.518,207.912,56.3,17.869,109.574,26.8,160.585,26.8a411.311,411.311,0,0,0,138.018-23.5c91.737-32.328,181.373-99.321,274.029-204.806,50.9-57.942,97.638-121.486,132.675-170.373,31.662-44.387,63.169-90.064,93.638-134.235,109.218-158.327,222.152-322.046,358.271-448.72,110.581-102.909,232.879-161.168,384.882-183.346,101.009-14.737,197.026-12.427,269.394-8.767,91.3,4.616,187.193,19.606,289.22,45.346v-2.935c-101.96-25.683-197.788-40.639-289.077-45.256-29.31-1.481-62.493-2.742-98.319-2.742-52.787,0-111.311,2.737-171.628,11.538" fill="#fff"/>
    </clipPath>
    <clipPath id="clip-path-8">
      <path id="Path_5336" data-name="Path 5336" d="M4858.568,1423.178c-72.523,2.353-136.488,13.741-195.554,34.81-70.959,25.314-135.758,64.517-198.1,119.845-135.427,120.2-246.078,277.929-353.088,430.465-34.139,48.664-69.44,98.986-105.164,147.575-35.283,47.753-82.612,109.917-135.868,167.221-180.943,194.7-348.206,240.569-577.324,158.311-114.35-41.055-233.153-71.878-358.931-104.508-251.665-65.289-536.909-139.29-850.6-317.993-88.848-50.615-169.276-113.824-247.053-174.952-48.536-38.145-94.38-74.174-139.846-105.235A1658.063,1658.063,0,0,0,1297.1,1579.068c-134.785-46-270.947-73.694-404.7-82.322-116.372-7.508-232.843-.912-345.479,5.467-43.728,2.476-86.718,4.91-128.44,6.4v2.616c41.769-1.49,84.818-3.928,128.589-6.406,112.558-6.373,228.948-12.961,345.162-5.465,278.609,17.973,563.906,117.952,803.339,281.52,45.4,31.009,91.2,67.014,139.7,105.13,77.855,61.189,158.359,124.458,247.377,175.168,140.323,79.943,286.644,145.786,447.322,201.292,141.534,48.892,274.919,83.5,403.913,116.962,125.719,32.616,244.465,63.423,358.7,104.437,55.982,20.1,106.719,32.12,155.112,36.75,15.006,1.438,29.694,2.157,44.156,2.157a406.081,406.081,0,0,0,100.552-12.42c47.854-12.119,93.587-32.822,139.813-63.294,46.8-30.848,92.754-70.816,140.491-122.186,53.345-57.4,100.73-119.636,136.057-167.449,35.742-48.616,71.052-98.949,105.2-147.625,106.922-152.412,217.485-310.014,352.681-430.008,114.263-101.414,235.159-148.908,392-154,93.9-3.048,186.69,9.184,265.078,21.552,92.055,14.523,187.763,39.031,294.75,76.013v-2.7q-7.278-2.508-14.483-4.938c-100.507-33.892-192.051-57.1-279.861-70.956-70.246-11.083-152.044-22.056-235.9-22.055q-14.791,0-29.664.473" fill="#fff"/>
    </clipPath>
    <clipPath id="clip-path-9">
      <path id="Path_5337" data-name="Path 5337" d="M4659.868,1475.271c-72.483,19.663-138.912,55.636-203.084,109.975-135.244,114.529-244.218,267.369-349.6,415.178-37.115,52.056-75.494,105.884-114.614,157.514-52.879,69.44-95.82,120.109-139.241,164.295-204.66,208.27-381.887,196.976-585.02,115.944-156.139-62.284-316.86-80.416-487.017-99.617-230.256-25.98-468.35-52.843-740.522-187.453-108.426-53.623-203.227-132.184-294.906-208.156-30.1-24.939-58.521-48.495-87.089-70.9-122.754-96.271-249.581-178.007-376.958-242.935-131.3-66.928-257.558-113.044-375.254-137.067-133.272-27.2-269.153-29.26-400.564-31.25-29.624-.449-58.835-.892-87.52-1.623v2.386c28.675.73,57.874,1.172,87.484,1.621,131.3,1.99,267.071,4.046,400.122,31.2,232.988,47.556,499.777,182.346,751.218,379.542,28.543,22.386,56.957,45.933,87.039,70.859,91.786,76.062,186.7,154.712,295.37,208.46,121.9,60.287,248.893,104.4,388.234,134.845,123.033,26.884,239.98,40.079,353.08,52.839,169.992,19.179,330.558,37.3,486.4,99.463,57.594,22.975,108.446,38.2,155.46,46.531a478.477,478.477,0,0,0,83.753,7.734,400.694,400.694,0,0,0,61.858-4.734c48.937-7.625,95.381-24.285,141.985-50.932,48.314-27.623,95.6-65.269,144.551-115.088,43.493-44.259,86.5-95,139.438-164.522,39.143-51.659,77.533-105.5,114.658-157.573,105.3-147.69,214.181-300.409,349.2-414.743,117.091-99.152,240.195-137.6,399.138-124.663,91.8,7.473,179.154,29.726,260.76,51.878,97.151,26.371,195.264,63.334,300.256,109.546v-2.6c-104.729-46.058-202.652-82.917-299.631-109.242-81.715-22.181-169.192-44.464-261.191-51.953q-29.837-2.428-57.841-2.431c-50.2,0-96.375,5.856-139.948,17.674" fill="#fff"/>
    </clipPath>
    <clipPath id="clip-path-10">
      <path id="Path_5338" data-name="Path 5338" d="M418.479,1408.407q18.389,1.383,37.062,2.742c154.02,11.3,313.286,22.987,464.421,78.247,186.8,68.3,415.474,224.517,699.092,477.591,11.854,10.576,24.036,21.546,35.817,32.156,104.8,94.384,213.176,191.982,341.9,246.164,115.538,48.635,235.428,77.769,366.518,89.069,115.837,9.988,225.976,5.248,332.489.66,189.582-8.159,368.653-15.872,546.492,61.885,83.624,36.562,181.247,73.14,279.477,73.135,7.624,0,15.269-.223,22.892-.68,49.987-3,97.125-15.6,144.111-38.511,49.762-24.266,98.37-59.572,148.6-107.937,44.726-43.065,90.106-94.41,142.814-161.594,42.076-53.88,83.039-110.435,122.653-165.13,104.146-143.788,211.837-292.474,347.187-401.863,120.448-97.351,245.755-126.752,406.3-95.338,86.435,16.913,167.275,47.237,256.44,82.209,100.88,39.564,202.026,89.967,305.734,145.6v-2.443c-103.414-55.453-204.3-105.69-304.946-145.166-89.264-35.009-170.2-65.367-256.815-82.315-73.813-14.443-139.23-15.877-199.99-4.383-73.934,13.987-142,46.749-208.079,100.158-135.572,109.569-243.346,258.372-347.576,402.276-39.6,54.677-80.554,111.218-122.6,165.065-52.643,67.1-97.959,118.377-142.612,161.369-198.763,191.38-367.844,171.9-592.727,73.573-178.3-77.957-357.609-70.237-547.448-62.064-216.448,9.317-440.27,18.958-698.078-89.562-128.387-54.04-236.622-151.515-341.291-245.778-11.784-10.612-23.966-21.585-35.823-32.165-131.334-117.188-247.166-210.85-354.119-286.334-127.351-89.884-243.653-154.373-345.67-191.673-151.417-55.362-310.834-67.059-465-78.372q-18.753-1.375-37.219-2.754Z" fill="#fff"/>
    </clipPath>
    <clipPath id="clip-path-11">
      <path id="Path_5339" data-name="Path 5339" d="M418.479,1352.481c174.479,19.352,353.632,42.17,515.4,131.91,176.553,97.944,374.719,299.287,566.36,494,26.427,26.85,53.752,54.613,80.587,81.664,54.476,54.917,112.8,112.64,174.232,161.721,69.173,55.269,134.188,93.076,198.761,115.586,113.014,39.4,229.725,55.7,356.805,49.846,112.325-5.179,218.89-26.532,321.948-47.182,201.072-40.288,390.993-78.343,584.552,13.429,119.175,56.505,211.553,92.151,303.723,95.282q6.394.216,12.732.217c100.019,0,191.281-40.594,286.1-127,46.531-42.4,92.983-92.821,146.192-158.661,44.665-55.5,87.84-114.2,129.593-170.963,103.331-140.479,210.181-285.742,346.226-390.716,161.017-124.238,313.1-97.177,413.49-66.011,89.124,27.665,175.424,72.607,251.567,112.255l.554.289c102.509,53.379,204.477,116.942,311.182,184.606v-2.276c-106.373-67.448-208.04-130.79-310.293-184.036l-.554-.288c-76.214-39.686-162.6-84.67-251.885-112.386-74.122-23.012-140.24-30.876-202.138-24.055-75.341,8.309-145.045,37.87-213.1,90.38-136.261,105.138-243.189,250.51-346.6,391.1-41.741,56.748-84.9,115.428-129.542,170.9-53.144,65.763-99.535,116.112-145.991,158.447-211.638,192.871-382.361,134.584-600.434,31.189-194.138-92.046-384.362-53.93-585.755-13.576-209.268,41.931-425.658,85.29-677.744-2.593C1816.43,2287.43,1704.2,2181.7,1582.187,2058.7c-26.831-27.049-54.156-54.81-80.581-81.66-95.876-97.412-195.017-198.14-290.215-284.678-106.787-97.068-197.259-165.645-276.584-209.653-162.159-89.957-341.593-112.782-516.328-132.161Z" fill="#fff"/>
    </clipPath>
    <clipPath id="clip-path-12">
      <path id="Path_5340" data-name="Path 5340" d="M418.478,1294.612c190.929,24.979,370.889,61.265,529.353,184.771,120.045,93.565,247.442,251.309,382.321,418.314,68.963,85.39,140.275,173.688,212.451,255.433,44.657,50.577,104.449,115.493,170.984,169.008,67.077,53.955,131.6,89.044,197.262,107.266a744.941,744.941,0,0,0,200.809,27.224c49.183,0,99.578-4.621,151.646-13.845,110.481-19.565,214.964-56.875,316.006-92.954,208.923-74.6,406.258-145.06,612.672-39.843,218.711,111.489,391.464,199.549,610.023,10.975,48.328-41.7,95.852-91.179,149.565-155.726,47-56.68,92.116-117.088,135.744-175.5,102.772-137.611,209.043-279.9,346.059-380.858,126.632-93.3,260.315-104.961,420.708-36.688,86.744,36.924,169.542,91.4,242.593,139.464l5.207,3.423c83.221,54.743,165.227,115.174,252.048,179.155q31.983,23.569,64.55,47.464v-2.1q-32.068-23.484-63.547-46.732c-86.839-63.991-168.862-124.437-252.122-179.205l-5.207-3.423c-73.11-48.1-155.977-102.624-242.86-139.607-74.249-31.605-141.058-45.913-204.216-43.749a355.994,355.994,0,0,0-107.534,20.583c-37.46,13.36-74.678,33.563-110.625,60.047-137.215,101.1-243.563,243.5-346.409,381.208-43.615,58.4-88.717,118.788-135.691,175.436-53.65,64.472-101.114,113.892-149.368,155.526-217.7,187.833-390,100-608.148-11.2-49.885-25.429-100.169-41.42-153.73-48.892-47.985-6.692-97.725-6.362-152.059,1.012-101.278,13.743-201.8,49.635-308.223,87.637-205.126,73.243-417.238,148.981-667.44,79.538-144.285-40.048-261.862-156.206-367.427-275.764-72.153-81.716-143.453-170-212.405-255.376-134.941-167.083-262.4-324.9-382.6-418.585a732.762,732.762,0,0,0-144.435-87.774c-47.053-21.792-97.489-39.674-154.189-54.668-75.066-19.851-153.584-32.394-231.768-42.675Z" fill="#fff"/>
    </clipPath>
    <clipPath id="clip-path-13">
      <path id="Path_5341" data-name="Path 5341" d="M418.478,1235.944c214.687,29.961,395.1,82.68,543.352,238.442,89.233,93.754,182.268,238.35,280.765,391.437,83.371,129.58,169.584,263.57,261.8,380.392,60.508,76.651,113.775,132.645,167.637,176.217,65.293,52.821,129.352,85.207,195.836,99.012a637.5,637.5,0,0,0,130.1,13.363c71.154,0,144.248-11.68,220.814-35.134,109.522-33.547,212.741-86.427,312.562-137.564,214.867-110.076,417.823-214.049,635.508-95.586,15.17,8.255,30.259,16.585,44.851,24.636,97.754,53.95,190.086,104.908,282.052,119.774,101.772,16.456,194.109-12.451,290.586-90.962,49.885-40.919,99.91-90.9,152.934-152.791,49.111-57.474,95.949-119.178,141.244-178.852,102.5-135.035,208.487-274.669,346.543-372.194,131.266-92.015,267.25-94.351,427.952-7.354,86.049,46.585,166.688,111.457,237.832,168.693l5.644,4.54c60.343,48.535,119.4,99.235,181.927,152.915,45.832,39.347,92.4,79.325,140.062,118.862v-1.9c-47.328-39.277-93.583-78.988-139.109-118.071-62.536-53.689-121.6-104.4-181.964-152.944l-5.644-4.542c-71.193-57.275-151.885-122.19-238.052-168.837-74.15-40.143-141.584-60.864-206.158-63.345a333.069,333.069,0,0,0-109.732,14.134c-38.351,11.637-76.57,30.7-113.6,56.654-138.242,97.66-244.3,237.383-346.866,372.507-45.283,59.656-92.107,121.343-141.191,178.782-52.967,61.83-102.933,111.751-152.748,152.609-209.542,170.528-369.054,82.5-571.006-28.957-14.594-8.053-29.685-16.382-44.859-24.64-52.611-28.629-105.333-45.252-161.188-50.819-50.053-4.986-101.709-.926-157.922,12.413-104.792,24.869-208.242,77.866-317.765,133.974-202.653,103.819-412.209,211.172-662.508,159.2-154.536-32.087-274.968-163.659-362.623-274.7-92.177-116.766-178.368-250.726-261.721-380.276-98.534-153.145-191.607-297.8-280.935-391.653a679.045,679.045,0,0,0-149.7-119.062c-50.148-29.479-104.6-53.154-166.472-72.379-72.386-22.491-149.048-36.8-228.24-47.686Z" fill="#fff"/>
    </clipPath>
    <clipPath id="clip-path-14">
      <path id="Path_5342" data-name="Path 5342" d="M418.478,1176.585c239.178,31.841,419.875,102.407,557.39,292.825,69.131,95.723,139.585,234.806,214.177,382.058,85.64,169.056,174.192,343.868,276.156,487.842,56.005,79.078,109.709,139.047,164.184,183.333,63.717,51.8,127.337,81.511,194.494,90.831a569.387,569.387,0,0,0,78.465,5.466,589.869,589.869,0,0,0,103.332-9.3c54.863-9.718,110.187-26.865,169.136-52.418,109.087-47.286,211.542-115.476,310.625-181.421,219.75-146.261,427.312-284.41,655.289-152.736,26.9,15.537,53.217,31.464,78.664,46.869,91.506,55.391,177.94,107.708,265.8,125.7,97.7,20.016,186.825-4.348,280.485-76.663,51.43-39.88,102.558-88.9,156.3-149.854,51.13-58.069,99.549-120.945,146.372-181.749,102.239-132.768,207.958-270.053,347.4-363.981,135.693-91.017,273.986-84.028,435.22,21.99,87.948,57.832,168.275,135.267,239.148,203.584,44.72,42.861,90.281,88.294,134.341,132.229,62.646,62.47,126.555,126.2,193.013,187.738v-1.678c-66.149-61.291-129.765-124.728-192.144-186.931-44.064-43.942-89.629-89.377-134.356-132.245-70.911-68.355-151.283-145.831-239.327-203.724-74.045-48.69-142.13-75.865-208.145-83.082a315.128,315.128,0,0,0-111.967,7.678c-39.252,9.937-78.437,27.908-116.47,53.42-139.611,94.042-245.393,231.406-347.69,364.25-46.812,60.789-95.218,123.649-146.32,181.687-53.7,60.9-104.766,109.863-156.133,149.693-203.8,157.354-361.868,61.67-544.9-49.118-25.456-15.41-51.776-31.342-78.687-46.885-55.089-31.817-110-49.024-167.873-52.611-51.876-3.208-105.194,4.673-163,24.108-107.785,36.237-213.641,106.691-325.711,181.281-201.194,133.907-409.237,272.378-660.706,237.479-124.112-17.224-237.819-104.182-357.843-273.655-101.91-143.9-190.443-318.673-276.061-487.687-74.614-147.295-145.091-286.423-214.277-382.225-40.978-56.741-86.162-103.466-138.133-142.845-47.973-36.348-100.432-65.408-160.374-88.838-83.145-32.5-173.409-50.539-259.882-61.871Z" fill="#fff"/>
    </clipPath>
    <clipPath id="clip-path-15">
      <path id="Path_5343" data-name="Path 5343" d="M418.479,1117.285c246.375,28.039,438.952,107.862,571.46,347.173,54.607,98.62,108.715,235.783,166,381,74.358,188.5,158.638,402.147,259.237,566.407,115.3,188.268,235.252,284.316,366.7,293.64q18.639,1.318,37.164,1.321c48.157,0,96.063-6.709,145.43-20.306,54.99-15.145,110.343-38.494,169.228-71.381,108.972-60.863,210.993-144.168,309.657-224.731,114.244-93.285,222.154-181.4,332.5-229.1,124.06-53.634,232.336-47.818,340.754,18.307,36.068,22,70.9,45.207,104.589,67.65,113.056,75.321,216.158,144.023,328.921,144.016,62.257,0,127.474-20.954,198.9-73.3,122.273-89.6,218.1-212.279,310.763-330.914,102.106-130.72,207.688-265.892,348.669-356.415,119.646-76.824,242.693-75.009,376.179,5.55,114.918,69.354,218.176,186.005,301.147,279.735,31.646,35.749,63.8,72.884,94.888,108.8,77,88.929,154.974,178.993,237.81,263.2V2286.5c-82.557-83.981-160.29-173.764-237.053-262.426-31.095-35.912-63.247-73.049-94.9-108.8-83.016-93.781-186.332-210.5-301.381-279.928-62.767-37.882-121.9-57.938-180.765-61.312-66.764-3.825-132.866,14.935-196.468,55.774-63.316,40.655-124.945,93.778-188.409,162.408-56.586,61.19-109.418,128.825-160.509,194.234-92.624,118.583-188.4,241.2-310.566,330.724-200.244,146.736-351.518,45.952-526.678-70.743-33.695-22.45-68.539-45.663-104.625-67.673-57.4-35.01-114.333-52.787-174.056-54.351-53.557-1.4-108.373,10.368-167.614,35.98-110.475,47.761-218.438,135.916-332.739,229.247-200.393,163.627-407.609,332.818-660.776,314.872-131.1-9.3-250.792-105.192-365.915-293.163-100.554-164.187-184.817-377.79-259.16-566.249-57.3-145.248-111.416-282.44-166.054-381.117-70.077-126.56-161.879-215.46-280.653-271.779-80.071-37.968-172.336-62.168-291.683-75.858Z" fill="#fff"/>
    </clipPath>
  </defs>
  <g id="Group_13597" data-name="Group 13597" transform="translate(0 -1609)">
    <rect id="Rectangle_1201" data-name="Rectangle 1201" width="640" height="380" transform="translate(0 1609)" fill="#e9e9e9"/>
    <g id="Mask_Group_1" data-name="Mask Group 1" transform="translate(0 237)" opacity="0.52" clip-path="url(#clip-path)" style="mix-blend-mode: normal;isolation: isolate">
      <g id="Group_13475" data-name="Group 13475" transform="matrix(-0.839, -0.545, 0.545, -0.839, 411.841, 4732.667)">
        <g id="Group_13448" data-name="Group 13448">
          <g id="Group_13447" data-name="Group 13447" clip-path="url(#clip-path-2)">
            <rect id="Rectangle_1204" data-name="Rectangle 1204" width="5055.87" height="1946.448" transform="translate(359.94 968.182) rotate(-1.882)" fill="#fff"/>
          </g>
        </g>
        <g id="Group_13450" data-name="Group 13450">
          <g id="Group_13449" data-name="Group 13449" clip-path="url(#clip-path-3)">
            <rect id="Rectangle_1205" data-name="Rectangle 1205" width="5052.258" height="1836.441" transform="translate(363.552 1055.198) rotate(-1.882)" fill="#fff"/>
          </g>
        </g>
        <g id="Group_13452" data-name="Group 13452">
          <g id="Group_13451" data-name="Group 13451" clip-path="url(#clip-path-4)">
            <rect id="Rectangle_1206" data-name="Rectangle 1206" width="5048.045" height="1708.282" transform="translate(367.763 1144.417) rotate(-1.882)" fill="#fff"/>
          </g>
        </g>
        <g id="Group_13454" data-name="Group 13454">
          <g id="Group_13453" data-name="Group 13453" clip-path="url(#clip-path-5)">
            <rect id="Rectangle_1207" data-name="Rectangle 1207" width="5044.109" height="1588.547" transform="translate(371.696 1231.752) rotate(-1.882)" fill="#fff"/>
          </g>
        </g>
        <g id="Group_13456" data-name="Group 13456">
          <g id="Group_13455" data-name="Group 13455" clip-path="url(#clip-path-6)">
            <rect id="Rectangle_1208" data-name="Rectangle 1208" width="5040.483" height="1478.179" transform="translate(375.32 1310.199) rotate(-1.882)" fill="#fff"/>
          </g>
        </g>
        <g id="Group_13458" data-name="Group 13458">
          <g id="Group_13457" data-name="Group 13457" clip-path="url(#clip-path-7)">
            <rect id="Rectangle_1209" data-name="Rectangle 1209" width="5037.328" height="1382.209" transform="translate(378.473 1375.741) rotate(-1.882)" fill="#fff"/>
          </g>
        </g>
        <g id="Group_13460" data-name="Group 13460">
          <g id="Group_13459" data-name="Group 13459" clip-path="url(#clip-path-8)">
            <rect id="Rectangle_1210" data-name="Rectangle 1210" width="5034.778" height="1304.574" transform="translate(381.022 1423.935) rotate(-1.882)" fill="#fff"/>
          </g>
        </g>
        <g id="Group_13462" data-name="Group 13462">
          <g id="Group_13461" data-name="Group 13461" clip-path="url(#clip-path-9)">
            <rect id="Rectangle_1211" data-name="Rectangle 1211" width="5032.811" height="1244.684" transform="translate(382.989 1450.632) rotate(-1.882)" fill="#fff"/>
          </g>
        </g>
        <g id="Group_13464" data-name="Group 13464">
          <g id="Group_13463" data-name="Group 13463" clip-path="url(#clip-path-10)">
            <rect id="Rectangle_1212" data-name="Rectangle 1212" width="5033.646" height="1270.142" transform="translate(382.154 1407.44) rotate(-1.882)" fill="#fff"/>
          </g>
        </g>
        <g id="Group_13466" data-name="Group 13466">
          <g id="Group_13465" data-name="Group 13465" clip-path="url(#clip-path-11)">
            <rect id="Rectangle_1213" data-name="Rectangle 1213" width="5035.497" height="1326.452" transform="translate(380.305 1351.802) rotate(-1.882)" fill="#fff"/>
          </g>
        </g>
        <g id="Group_13468" data-name="Group 13468">
          <g id="Group_13467" data-name="Group 13467" clip-path="url(#clip-path-12)">
            <rect id="Rectangle_1214" data-name="Rectangle 1214" width="5037.263" height="1380.177" transform="matrix(0.999, -0.033, 0.033, 0.999, 378.539, 1294.245)" fill="#fff"/>
          </g>
        </g>
        <g id="Group_13470" data-name="Group 13470">
          <g id="Group_13469" data-name="Group 13469" clip-path="url(#clip-path-13)">
            <rect id="Rectangle_1215" data-name="Rectangle 1215" width="5041.242" height="1501.237" transform="translate(374.563 1235.695) rotate(-1.882)" fill="#fff"/>
          </g>
        </g>
        <g id="Group_13472" data-name="Group 13472">
          <g id="Group_13471" data-name="Group 13471" clip-path="url(#clip-path-14)">
            <rect id="Rectangle_1216" data-name="Rectangle 1216" width="5045.653" height="1635.456" transform="translate(370.154 1176.722) rotate(-1.882)" fill="#fff"/>
          </g>
        </g>
        <g id="Group_13474" data-name="Group 13474">
          <g id="Group_13473" data-name="Group 13473" clip-path="url(#clip-path-15)">
            <rect id="Rectangle_1217" data-name="Rectangle 1217" width="5050.056" height="1769.476" transform="matrix(0.999, -0.033, 0.033, 0.999, 365.753, 1118.069)" fill="#fff"/>
          </g>
        </g>
      </g>
    </g>
  </g>
</svg>
