<svg xmlns="http://www.w3.org/2000/svg" width="18.903" height="19.309" viewBox="0 0 18.903 19.309">
  <path id="Path_687" data-name="Path 687" d="M8.877,0H3.4a.916.916,0,0,0-.914.957C2.631,3.8,4.164,17.353,20.293,19.3a.921.921,0,0,0,.758-.264l.07-.07a.913.913,0,0,0,.269-.647V13.055a.546.546,0,0,0-.159-.385l-.133-.133a.542.542,0,0,0-.339-.157c-.717-.058-3.195-.3-3.935-.854l-1.667,1.666a.913.913,0,0,1-1.117.139A16.616,16.616,0,0,1,8.25,7.784a.924.924,0,0,1,.1-1.1l1.729-1.9a10.662,10.662,0,0,1-.666-4.2A.536.536,0,0,0,9.364.3.546.546,0,0,0,8.877,0" transform="translate(-2.487)" fill="#686565" fill-rule="evenodd"/>
</svg>
