<svg xmlns="http://www.w3.org/2000/svg" xmlns:xlink="http://www.w3.org/1999/xlink" width="1090.319" height="1044.718" viewBox="0 0 1090.319 1044.718">
  <defs>
    <clipPath id="clip-path">
      <rect id="Rectangle_1251" data-name="Rectangle 1251" width="12.084" height="17.723" fill="none"/>
    </clipPath>
  </defs>
  <g id="Group_13612" data-name="Group 13612" transform="translate(-240 -2682)">
    <path id="Path_5444" data-name="Path 5444" d="M1501.288,437.077c-103.967-161.354-291.3-261.415-495.844-243.8s-372.008,148.2-446.87,324.948c103.953,161.353,291.291,261.4,495.841,243.8,204.544-17.616,372.036-148.2,446.873-324.949" transform="matrix(0.766, 0.643, -0.643, 0.766, 303.212, 2176.432)" fill="#76ce07" opacity="0.07"/>
    <g id="Group_13544" data-name="Group 13544" transform="translate(698.511 3086.5)">
      <g id="Group_13545" data-name="Group 13545">
        <g id="Group_13542" data-name="Group 13542">
          <g id="Group_13546" data-name="Group 13546">
            <path id="Path_5406" data-name="Path 5406" d="M248.114,412.3l-34.245-2.54a2.667,2.667,0,0,1-2.46-2.854l1.095-14.761a19.834,19.834,0,0,1,39.559,2.934l-1.095,14.761a2.667,2.667,0,0,1-2.854,2.46" transform="translate(-106.421 -188.163)" fill="#2f2e41"/>
            <path id="Path_5407" data-name="Path 5407" d="M233.811,395.723a14.541,14.541,0,1,1,4.309,20.108,14.541,14.541,0,0,1-4.309-20.108" transform="translate(-116.527 -195.866)" fill="#ffb6b6"/>
            <rect id="Rectangle_1250" data-name="Rectangle 1250" width="16.173" height="13.986" transform="matrix(0.339, -0.941, 0.941, 0.339, 117.185, 227.173)" fill="#ffb6b6"/>
            <path id="Path_5408" data-name="Path 5408" d="M207.038,665.909l.9,18.948h0a12.09,12.09,0,0,1-11.5,12.648l-.392.018L194.57,666.5Z" transform="translate(-97.948 -335.224)" fill="#2f2e41"/>
            <path id="Path_5409" data-name="Path 5409" d="M690.963,418.721a217.784,217.784,0,0,1-34.955,50.06c-.322.348-.646.687-.974,1.032l-34.315-16.245c.21-.349.44-.74.688-1.168,14.74-25.22,103.72-179.066,100.909-213.911.327,2.874,10.874,97.912-31.353,180.231" transform="translate(-312.475 -120.058)" fill="#e6e6e6"/>
            <path id="Path_5410" data-name="Path 5410" d="M677.529,603.159c-.48.273-.973.54-1.468.8l-25.742-12.186c.36-.256.779-.558,1.261-.9,7.887-5.663,31.338-22.651,54.284-40.91,24.66-19.621,48.741-40.7,52.318-50.766-.726,2.308-23.3,72.451-80.652,103.96" transform="translate(-327.376 -251.301)" fill="#e6e6e6"/>
            <path id="Path_5411" data-name="Path 5411" d="M45.957,568.05A39.727,39.727,0,1,1,6.23,607.777,39.727,39.727,0,0,1,45.957,568.05" transform="translate(-3.136 -285.961)" fill="#76ce07"/>
            <path id="Path_5412" data-name="Path 5412" d="M80.634,614.479H48.807a5.31,5.31,0,0,0-5.3,5.3v22.733a5.31,5.31,0,0,0,5.3,5.3H80.634a5.311,5.311,0,0,0,5.3-5.3V619.784a5.311,5.311,0,0,0-5.3-5.3m0,3.031a2.267,2.267,0,0,1,.563.073l-16.473,13.14L48.348,617.557a2.309,2.309,0,0,1,.459-.047Zm0,27.28H48.807a2.276,2.276,0,0,1-2.273-2.273V619.988l17.237,13.859a1.516,1.516,0,0,0,1.895,0L82.908,620.1v22.421a2.276,2.276,0,0,1-2.273,2.273" transform="translate(-21.9 -309.334)" fill="#fff"/>
            <path id="Path_5413" data-name="Path 5413" d="M344.089,518.678l8.889.073a6.184,6.184,0,1,0-2.686-11.73l-8.383,4.136-28.671,6.394-12.284-12.558L293.9,516.614l16.575,12.806Z" transform="translate(-147.951 -254.218)" fill="#ffb8b8"/>
            <path id="Path_5414" data-name="Path 5414" d="M327.913,636.477l-10.473,2.014c-7.154-22.55-14.9-43.9-14.9-60.421a59.685,59.685,0,0,1-37.461,19.737l1.611-24.974,12.084-6.445,18.495-8.536a14.043,14.043,0,0,1,19.752,10.532Z" transform="translate(-133.442 -280.177)" fill="#2f2e41"/>
            <path id="Path_5415" data-name="Path 5415" d="M236.477,602.3l-4.174,3.172a12.926,12.926,0,0,1-12.744,1.662c-11.955-8.961-20.449-6.318-28.147,7.209-9.234-10.421-11.512-25.473-3.271-41.044l45.718,1.007,9.264-2.82Z" transform="translate(-92.154 -287.691)" fill="#2f2e41"/>
            <path id="Path_5416" data-name="Path 5416" d="M229,675.59h0a11.674,11.674,0,0,1-13.815-5.821c-4.108-3.619-7.575-8.8-10.582-15.1a116.824,116.824,0,0,1-5.545-14.244,12.093,12.093,0,0,1,7.873-15.369q.289-.086.585-.162a17.3,17.3,0,0,1,20.475,11.187l8.592,24.486a11.674,11.674,0,0,1-7.15,14.88q-.214.075-.432.142" transform="translate(-99.906 -314.312)" fill="#2f2e41"/>
            <g id="Group_13540" data-name="Group 13540" transform="translate(103.237 337.569)" opacity="0.2" style="mix-blend-mode: normal;isolation: isolate">
              <g id="Group_13539" data-name="Group 13539">
                <g id="Group_13538" data-name="Group 13538" clip-path="url(#clip-path)">
                  <path id="Path_5417" data-name="Path 5417" d="M207.891,679.772s10.07,11.279,12.084,17.723" transform="translate(-207.891 -679.772)"/>
                </g>
              </g>
            </g>
            <path id="Path_5418" data-name="Path 5418" d="M125.358,526.126l-3.37,8.225a6.185,6.185,0,1,0,11.888,1.865l-.726-9.32,4.716-28.995,16.223-6.739L145.92,480.3l-18.048,10.632Z" transform="translate(-61.176 -241.785)" fill="#ffb8b8"/>
            <path id="Path_5419" data-name="Path 5419" d="M225.288,512.66c-11.574,19.44-34.646,26.968-54.407,11.745,3.476-11.422,14.7-42.988,7.449-44.2-15.394,6.456-15.417-8.7-18.3-16.288l35.044-12.89,18.932,5.237,3.881,1.377a13.119,13.119,0,0,1,8.731,12.185c-7.952,11.489-13.839,23.745-1.333,42.83" transform="translate(-80.563 -227.053)" fill="#76ce07"/>
            <path id="Path_5420" data-name="Path 5420" d="M286.273,504.71l-13.9-11.48,4.632-26.787,18.932,20.14Z" transform="translate(-137.117 -234.812)" fill="#76ce07"/>
            <path id="Path_5421" data-name="Path 5421" d="M582.025,85.883h-1.986v-54.4A31.484,31.484,0,0,0,548.554,0H433.3a31.484,31.484,0,0,0-31.484,31.484V329.922A31.484,31.484,0,0,0,433.3,361.406H548.554a31.484,31.484,0,0,0,31.483-31.484V124.605h1.986Z" transform="translate(-202.279)" fill="#3f3d56"/>
            <path id="Path_5422" data-name="Path 5422" d="M558.627,16.493H543.583A11.171,11.171,0,0,1,533.24,31.884H467.214a11.171,11.171,0,0,1-10.343-15.39H442.818a23.512,23.512,0,0,0-23.513,23.513v298a23.512,23.512,0,0,0,23.513,23.513H558.623a23.512,23.512,0,0,0,23.513-23.513v-298a23.512,23.512,0,0,0-23.513-23.513Z" transform="translate(-211.082 -8.303)" fill="#fff"/>
            <path id="Path_5423" data-name="Path 5423" d="M570.57,625.746a12.911,12.911,0,1,1-12.911,12.911,12.912,12.912,0,0,1,12.911-12.911" transform="translate(-280.73 -315.006)" fill="#e6e6e6"/>
            <path id="Path_5424" data-name="Path 5424" d="M475.938,411.3a2.549,2.549,0,0,0,0,5.053H580.293a2.549,2.549,0,0,0,0-5.053Z" transform="translate(-238.477 -207.051)" fill="#e6e6e6"/>
            <path id="Path_5425" data-name="Path 5425" d="M475.938,531.3a2.549,2.549,0,0,0,0,5.053H580.293a2.549,2.549,0,0,0,0-5.053Z" transform="translate(-238.477 -267.46)" fill="#e6e6e6"/>
            <path id="Path_5426" data-name="Path 5426" d="M475.938,441.825a2.549,2.549,0,0,0,0,5.053h44.9a2.549,2.549,0,0,0,0-5.053Z" transform="translate(-238.477 -222.419)" fill="#e6e6e6"/>
            <path id="Path_5427" data-name="Path 5427" d="M475.938,470.924a2.549,2.549,0,0,0,0,5.053H580.293a2.549,2.549,0,0,0,0-5.053Z" transform="translate(-238.477 -237.067)" fill="#e6e6e6"/>
            <path id="Path_5428" data-name="Path 5428" d="M475.938,501.451a2.549,2.549,0,0,0,0,5.053h44.9a2.549,2.549,0,0,0,0-5.053Z" transform="translate(-238.477 -252.435)" fill="#e6e6e6"/>
            <path id="Path_5429" data-name="Path 5429" d="M515.109,179.627H580.07a2.71,2.71,0,0,1,2.706,2.707v67.654a2.71,2.71,0,0,1-2.706,2.707H515.109a2.711,2.711,0,0,1-2.707-2.707V182.333a2.71,2.71,0,0,1,2.707-2.706" transform="translate(-257.948 -90.426)" fill="#76ce07"/>
            <path id="Path_5430" data-name="Path 5430" d="M581.141,294.944a1.838,1.838,0,0,0,0-3.675H543.863a1.838,1.838,0,0,0,0,3.675Z" transform="translate(-272.86 -146.627)" fill="#fff"/>
            <path id="Path_5431" data-name="Path 5431" d="M581.141,273.142a1.838,1.838,0,0,0,0-3.675H543.863a1.838,1.838,0,0,0,0,3.675Z" transform="translate(-272.86 -135.652)" fill="#fff"/>
            <path id="Path_5432" data-name="Path 5432" d="M571.534,207.721a11.567,11.567,0,1,1-11.567,11.567,11.567,11.567,0,0,1,11.567-11.567" transform="translate(-281.892 -104.569)" fill="#fff"/>
            <path id="Path_5433" data-name="Path 5433" d="M252.1,395.8l-20.94-1.553.008-3.022-1.3,2.927-3.224-.239.016-5.99-2.57,5.8-6.239-.463.022-.3a15.707,15.707,0,0,1,16.807-14.486l2.952.219a15.707,15.707,0,0,1,14.486,16.807Z" transform="translate(-109.669 -190.509)" fill="#2f2e41"/>
            <path id="Path_5434" data-name="Path 5434" d="M241.365,425.181a2.711,2.711,0,0,1-.467-.076l-15.133-3.843,1.88-25.342,16.879,1.252-.454.456c-6.317,6.349-2.753,17.67-.065,23.852a2.626,2.626,0,0,1-.414,2.763,2.654,2.654,0,0,1-2.226.937" transform="translate(-113.652 -199.31)" fill="#2f2e41"/>
            <path id="Path_5435" data-name="Path 5435" d="M361.333,702.174H380.3a12.09,12.09,0,0,1,12.089,12.089v.393H361.333Z" transform="translate(-181.898 -353.48)" fill="#2f2e41"/>
            <path id="Path_5436" data-name="Path 5436" d="M454.012,728.78H.511a.5.5,0,1,1,0-.993h453.5a.5.5,0,1,1,0,.993" transform="translate(0 -366.374)" fill="#cacaca"/>
            <path id="Path_5437" data-name="Path 5437" d="M334.84,434.9h0Z" transform="translate(-168.318 -218.934)" fill="#ffb6b6"/>
          </g>
        </g>
      </g>
    </g>
    <path id="Path_14028" data-name="Path 14028" d="M628.255,3175.727s40.013-55.55,136.8,31.5,122.4-23.4,122.4-23.4" transform="translate(-29 4.897)" fill="none" stroke="#76ce07" stroke-width="1" stroke-dasharray="11 4"/>
  </g>
</svg>
