<svg xmlns="http://www.w3.org/2000/svg" width="13.699" height="25.948" viewBox="0 0 13.699 25.948">
  <path id="Path_14022" data-name="Path 14022" d="M13.692,48.151l-.329,2.638a.88.88,0,0,1-.871.773H8.218V62.594q-.677.061-1.369.061a15.25,15.25,0,0,1-3.014-.3V51.562H.548A.55.55,0,0,1,0,51.012v-3.3a.55.55,0,0,1,.548-.55H3.835V42.209a5.491,5.491,0,0,1,5.479-5.5h3.835a.55.55,0,0,1,.548.55v3.3a.55.55,0,0,1-.548.55H10.41a2.2,2.2,0,0,0-2.191,2.2v3.851h4.6a.88.88,0,0,1,.871.99" transform="translate(0 -36.707)" fill="#505050"/>
</svg>
