<svg xmlns="http://www.w3.org/2000/svg" xmlns:xlink="http://www.w3.org/1999/xlink" width="142.503" height="143.304" viewBox="0 0 142.503 143.304">
  <defs>
    <filter id="Union_5" x="7.767" y="0" width="114.5" height="118.402" filterUnits="userSpaceOnUse">
      <feOffset dy="5" input="SourceAlpha"/>
      <feGaussianBlur stdDeviation="1.5" result="blur"/>
      <feFlood flood-opacity="0.161"/>
      <feComposite operator="in" in2="blur"/>
      <feComposite in="SourceGraphic"/>
    </filter>
  </defs>
  <g id="Group_13606" data-name="Group 13606" transform="translate(-453.233 -1624.988)">
    <path id="Path_5378" data-name="Path 5378" d="M683.938,223.96a71.119,71.119,0,0,0-125.364,10.791A71.119,71.119,0,0,0,683.938,223.96" transform="translate(247.369 1095.567) rotate(45)" fill="#76ce07"/>
    <path id="Path_5379" data-name="Path 5379" d="M594.384,200.609a20.315,20.315,0,0,0-35.81,3.082,20.315,20.315,0,0,0,35.81-3.082" transform="translate(349.071 2249.551) rotate(-87)" fill="#76ce07"/>
    <g transform="matrix(1, 0, 0, 1, 453.23, 1624.99)" filter="url(#Union_5)">
      <path id="Union_5-2" data-name="Union 5" d="M14.972,119.894c-6.6,0-10.906-3.275-12.623-9.648a1.523,1.523,0,0,0-1.029-1.153,6.81,6.81,0,0,1-.006-12.675,1.39,1.39,0,0,0,.969-1.354c1.3-13,10.037-23.124,22.867-25.855a48.652,48.652,0,0,1,19.57.112c1.19.234,1.436.053,1.372-1.123q-.552-10.182-.975-20.369c-.049-1.24-.422-1.758-1.675-1.591a8.441,8.441,0,0,1-1.516,0c-1.4-.067-2.171-.715-2.137-2.219.043-1.966.018-3.933.008-5.9-.007-1.554.782-2.233,2.3-2.221,1.012.008,2.024,0,3.036,0,1.63-.008,3.259-.016,4.887.032,1.148.032,1.31-.369,1.089-1.374-1.414-6.4-2.791-12.812-4.178-19.221-.059-.274-.091-.554-.151-.828-.265-1.2-.01-2.227,1.319-2.467,1.24-.225,1.805.641,2.044,1.748Q51.522,20.2,52.9,26.607c.584,2.74,1.21,5.474,1.7,8.23.228,1.272,1.067,1.063,1.885,1.063q20.146,0,40.292,0c.842,0,1.686.006,2.528,0a1.934,1.934,0,0,1,2.175,2.187c.015,1.911-.035,3.822.018,5.731.045,1.627-.708,2.461-2.3,2.4-1.074-.04-1.31.433-1.351,1.392Q97,67.57,96.094,87.521q-.679,14.9-1.421,29.8c-.108,2.183-.573,2.576-2.825,2.577q-19.472,0-38.944,0l-23.707,0Q22.085,119.9,14.972,119.894Zm58.153-56.36a17.131,17.131,0,0,1,7.806,30.623,18.331,18.331,0,0,1-10.449,3.555c.031.216.012.346.066.425,3.141,4.523,2.171,8.377-2.785,11.045-.289.156-.634.249-.7.652a13.331,13.331,0,0,1-3.188,6.454,3.273,3.273,0,0,0,.622.175c8.543.007,17.086-.006,25.629.03,1.032,0,1.2-.473,1.221-1.327.094-2.976.223-5.952.362-8.927q.6-12.8,1.211-25.591c.509-10.888.991-21.778,1.541-32.665.067-1.333-.3-1.688-1.64-1.684q-21.33.073-42.66-.006c-1.5-.006-1.742.487-1.663,1.825.364,6.169.864,12.344.851,18.516-.006,3.151.9,5.02,3.833,6.209,1.278.518,1.745.8,2.521-.659a16.754,16.754,0,0,1,15.025-8.8A18.928,18.928,0,0,1,73.125,63.534ZM7.517,109.672c-1.914,0-2,.106-1.157,1.811,1.73,3.494,4.655,4.994,8.468,4.992q7.875,0,15.752,0,10.656,0,21.312-.006c1.458,0,2.923-.024,4.372-.165a8.067,8.067,0,0,0,6.661-4.77c.846-1.665.7-1.858-1.159-1.858q-13.562-.007-27.124,0H7.517ZM3.548,99.382a3.334,3.334,0,0,0-3.074,2.861,3.455,3.455,0,0,0,1.906,3.607,4.954,4.954,0,0,0,2.313.27q14.908.014,29.815,0,15.328,0,30.657-.007c2.614,0,4.157-1.885,3.581-4.263-.392-1.626-1.726-2.489-3.885-2.489q-29.31,0-58.619,0c-.532,0-1.065-.016-1.6-.016C4.279,99.349,3.913,99.356,3.548,99.382ZM27.165,72.356C17,73.665,7.541,82.019,5.732,94.2c-.178,1.2.027,1.77,1.506,1.758,9.1-.075,18.2-.037,27.3-.037s18.2-.027,27.3.029c1.412.008,1.925-.157,1.7-1.806A25.742,25.742,0,0,0,44.884,72.9a37.643,37.643,0,0,0-9.5-1.131A64.457,64.457,0,0,0,27.165,72.356ZM69.82,66.824c-4.774.219-8.942,2.749-11.558,7.795a1.779,1.779,0,0,0,.394,2.461,28.394,28.394,0,0,1,7.7,13.579c.826,3.343,1.206,3.678,4.683,3.555a15.923,15.923,0,0,0,2.16-.31A13.738,13.738,0,0,0,84.281,79.046c-.609-6.731-6.674-12.222-14.316-12.223ZM98.006,42.308a1.973,1.973,0,0,0-1.773-3H45.027c-.337,0-.674,0-1.011.008a.7.7,0,0,0-.766.483c-.648,1.728.114,2.934,1.88,2.934q12.717,0,25.433,0V42.7q13.053,0,26.107-.005C97.144,42.7,97.7,42.92,98.006,42.308ZM33.031,90.886c-1.34-.009-1.853-.3-1.823-1.746.027-1.318.266-1.918,1.738-1.823,1.226.079,2.2.112,1.7,1.673.353,1.45-.172,1.9-1.566,1.9ZM17.59,89.163c-1.3-.04-1.906-.237-1.832-1.724.06-1.219.1-1.984,1.669-1.885,1.238.078,2.151.132,1.744,1.706.245,1.244-.022,1.9-1.429,1.9Zm29-1.915c-.116-1.545.64-1.627,1.88-1.7,1.595-.087,1.6.718,1.66,1.916.076,1.516-.576,1.875-1.889,1.608a2.725,2.725,0,0,1-.616.083C46.606,89.159,46.665,88.242,46.59,87.248ZM17.446,80.407c-.03-1.442.454-1.724,1.794-1.728,1.406,0,1.978.386,1.623,1.8.408,1.531-.4,1.681-1.689,1.732q-.105,0-.2,0C17.693,82.213,17.472,81.667,17.446,80.407Zm18.909-1.732c-.105-1.52.547-1.637,1.817-1.7,1.522-.07,1.653.561,1.688,1.831.041,1.463-.472,1.92-1.831,1.6a2.664,2.664,0,0,1-.686.108C36.418,80.515,36.425,79.679,36.355,78.674Z" transform="translate(15.77 -11.49)" fill="#fff" stroke="rgba(0,0,0,0)" stroke-width="1"/>
    </g>
  </g>
</svg>
