<svg id="Group_13588" data-name="Group 13588" xmlns="http://www.w3.org/2000/svg" width="23.897" height="23.896" viewBox="0 0 23.897 23.896">
  <path id="Path_14023" data-name="Path 14023" d="M585.183,45.652h-12.36a5.769,5.769,0,0,0-5.768,5.768v12.36a5.769,5.769,0,0,0,5.768,5.768h12.36a5.769,5.769,0,0,0,5.768-5.768V51.42a5.769,5.769,0,0,0-5.768-5.768m3.708,17.717a4.122,4.122,0,0,1-4.12,4.12H573.234a4.122,4.122,0,0,1-4.12-4.12V51.832a4.122,4.122,0,0,1,4.12-4.12h11.536a4.122,4.122,0,0,1,4.12,4.12Z" transform="translate(-567.054 -45.652)" fill="#505050"/>
  <path id="Path_14024" data-name="Path 14024" d="M623.645,95.962a6.18,6.18,0,1,0,6.18,6.18,6.182,6.182,0,0,0-6.18-6.18m0,10.3a4.12,4.12,0,1,1,4.12-4.12,4.127,4.127,0,0,1-4.12,4.12" transform="translate(-611.685 -89.928)" fill="#505050"/>
  <path id="Path_14025" data-name="Path 14025" d="M719.32,84.06a1.236,1.236,0,1,1,1.236-1.236,1.238,1.238,0,0,1-1.236,1.236" transform="translate(-701.18 -78.026)" fill="#505050"/>
</svg>
