<svg id="Group_12629" data-name="Group 12629" xmlns="http://www.w3.org/2000/svg" xmlns:xlink="http://www.w3.org/1999/xlink" width="23.205" height="22.501" viewBox="0 0 23.205 22.501">
  <defs>
    <clipPath id="clip-path">
      <rect id="Rectangle_11572" data-name="Rectangle 11572" width="23.205" height="22.501" fill="#7e7e7e"/>
    </clipPath>
  </defs>
  <g id="Group_12628" data-name="Group 12628" transform="translate(0 0)" clip-path="url(#clip-path)">
    <path id="Path_792" data-name="Path 792" d="M62.9,6.214A5.939,5.939,0,0,1,69.073,0a5.856,5.856,0,0,1,5.606,6.268,7.514,7.514,0,0,1-.841,2.756,29.9,29.9,0,0,1-4.852,6.747c-.156.172-.241.151-.385-.009A30.725,30.725,0,0,1,63.888,9.3,7.775,7.775,0,0,1,62.9,6.214m8.733-.881a2.8,2.8,0,0,0-2.861-2.875,2.858,2.858,0,0,0-.022,5.716,2.784,2.784,0,0,0,2.883-2.841" transform="translate(-57.195 0)" fill="#7e7e7e"/>
    <path id="Path_793" data-name="Path 793" d="M98.359,199.9h-.5c-4.186,0-8.372,0-12.557.009a.752.752,0,0,1-.726-.4c-.581-.9-1.184-1.788-1.8-2.669-.177-.255-.2-.371.144-.481,1.208-.383,2.407-.792,3.605-1.2a1.149,1.149,0,0,1,.62-.031q4.844.942,9.69,1.871a.783.783,0,0,1,.72.6c.226.762.521,1.5.8,2.3" transform="translate(-75.154 -177.412)" fill="#7e7e7e"/>
    <path id="Path_794" data-name="Path 794" d="M8.036,169.178H0l2.76-7.84,5.276,7.84" transform="translate(0 -146.707)" fill="#7e7e7e"/>
    <path id="Path_795" data-name="Path 795" d="M151.521,157.291l-8.671-1.682c.739-.886,1.424-1.705,2.106-2.527a.37.37,0,0,1,.319-.127c1.494,0,2.989,0,4.483,0a.323.323,0,0,1,.359.254c.459,1.308.928,2.612,1.392,3.918a.809.809,0,0,1,.014.166" transform="translate(-129.895 -139.081)" fill="#7e7e7e"/>
    <path id="Path_796" data-name="Path 796" d="M42.9,152.991h3.909a.372.372,0,0,1,.327.108c.734.877,1.47,1.752,2.244,2.673l-3.588,1.208a.213.213,0,0,1-.272-.093c-.854-1.273-1.711-2.544-2.62-3.894" transform="translate(-39.011 -139.117)" fill="#7e7e7e"/>
    <path id="Path_797" data-name="Path 797" d="M113,45.094a1.455,1.455,0,0,1-1.5-1.512,1.478,1.478,0,0,1,1.5-1.485,1.518,1.518,0,0,1,1.495,1.5,1.493,1.493,0,0,1-1.488,1.5" transform="translate(-101.381 -38.279)" fill="#7e7e7e"/>
  </g>
</svg>
