<svg xmlns="http://www.w3.org/2000/svg" width="20.6" height="20.6" viewBox="0 0 20.6 20.6">
  <path id="Path_688" data-name="Path 688" d="M22.056,54.7V65.324a1.922,1.922,0,0,1-1.931,1.9H3.387a1.93,1.93,0,0,1-1.931-1.931V54.7a1.935,1.935,0,0,1,.737-1.524c1-.825,1.83-1.42,6.608-4.893.672-.487,2-1.663,2.938-1.663h.035c.936,0,2.265,1.176,2.933,1.666,4.778,3.47,5.61,4.1,6.608,4.893a1.906,1.906,0,0,1,.741,1.521m-2.575,2.171V55.01c-.859-.675-1.9-1.447-6.289-4.642-.132-.1-.282-.213-.445-.341-.223-.171-.661-.512-.992-.717-.331.206-.769.547-.992.717-.164.125-.313.24-.442.334C5.9,53.572,4.884,54.342,4.031,55.01v1.865L9.859,61.41a3.05,3.05,0,0,0,3.8,0Z" transform="translate(-1.456 -46.62)" fill="#686565"/>
</svg>
