<svg xmlns="http://www.w3.org/2000/svg" width="19.734" height="19.734" viewBox="0 0 19.734 19.734">
  <path id="Path_789" data-name="Path 789" d="M19.734-3.991V-14.139a2.091,2.091,0,0,0-.709-1.456c-.96-.752-1.754-1.363-6.329-4.683-.648-.473-1.935-1.611-2.83-1.6-.894-.013-2.181,1.124-2.83,1.6-4.575,3.32-5.369,3.931-6.329,4.683A2.091,2.091,0,0,0,0-14.139V-3.991a1.85,1.85,0,0,0,1.85,1.85H17.884A1.85,1.85,0,0,0,19.734-3.991ZM17.2-11.569l.35.509a.362.362,0,0,1,.054.175.347.347,0,0,1-.125.248c-.882.651-2.137,1.568-4.059,2.963-.782.571-2.179,1.843-3.556,1.834-1.378.009-2.775-1.264-3.556-1.834C4.39-9.069,3.134-9.986,2.252-10.638a.347.347,0,0,1-.125-.248.362.362,0,0,1,.054-.175l.35-.509a.308.308,0,0,1,.437-.073c.881.65,2.138,1.569,4.069,2.971.65.474,1.935,1.61,2.83,1.6.894.014,2.181-1.124,2.83-1.6,1.932-1.4,3.189-2.321,4.069-2.971A.308.308,0,0,1,17.2-11.569Z" transform="translate(0 21.875)" fill="#cecece"/>
</svg>
