<svg xmlns="http://www.w3.org/2000/svg" xmlns:xlink="http://www.w3.org/1999/xlink" width="142.503" height="142.503" viewBox="0 0 142.503 142.503">
  <defs>
    <filter id="Union_9" x="22.18" y="13.411" width="104.577" height="108.19" filterUnits="userSpaceOnUse">
      <feOffset dy="3" input="SourceAlpha"/>
      <feGaussianBlur stdDeviation="2.5" result="blur"/>
      <feFlood flood-opacity="0.161"/>
      <feComposite operator="in" in2="blur"/>
      <feComposite in="SourceGraphic"/>
    </filter>
  </defs>
  <g id="Group_13608" data-name="Group 13608" transform="translate(-1728.821 -1625.788)">
    <path id="Path_5394" data-name="Path 5394" d="M683.938,223.96a71.119,71.119,0,0,0-125.364,10.791A71.119,71.119,0,0,0,683.938,223.96" transform="translate(1522.956 1095.567) rotate(45)" fill="#76ce07"/>
    <path id="Path_5395" data-name="Path 5395" d="M594.384,200.609a20.315,20.315,0,0,0-35.81,3.082,20.315,20.315,0,0,0,35.81-3.082" transform="translate(1624.658 2238.551) rotate(-87)" fill="#76ce07"/>
    <g transform="matrix(1, 0, 0, 1, 1728.82, 1625.79)" filter="url(#Union_9)">
      <path id="Union_9-2" data-name="Union 9" d="M255.57,175.456a12.2,12.2,0,0,1-4.85-4.1,2.593,2.593,0,0,0-2.542-1.2c-8.937.034-17.874.022-26.811.018-6.556,0-10.334-3.683-10.337-10.073,0-10.893.042-21.786-.03-32.678a11.473,11.473,0,0,1,2.613-7.576c2.271-2.829,4.363-5.8,6.677-8.591a6.864,6.864,0,0,0,1.8-5.226c-.109-1.319-.078-2.378-1.546-3.158a4.385,4.385,0,0,1-2.129-4.044c-.032-2.831-.067-5.664.006-8.493a5.285,5.285,0,0,1,5.436-5.3q16.646-.081,33.293,0a5.245,5.245,0,0,1,5.394,5.2c.148,2.871.091,5.757.017,8.634a5.011,5.011,0,0,1-2.776,4.458,1.659,1.659,0,0,0-.924,1.574,8.523,8.523,0,0,0,2.259,6.957c2.325,2.653,4.308,5.589,6.5,8.355a10.5,10.5,0,0,1,2.35,6.8c-.022,4.844-.006,9.689-.006,14.854,2.617-1.477,4.963-2.845,7.351-4.141,8.695-4.719,18.848-.661,21.665,8.639,1.856,6.128-.92,12.824-6.911,16.27q-11.092,6.38-22.3,12.571a14.833,14.833,0,0,1-7.244,1.967A15.613,15.613,0,0,1,255.57,175.456Zm11.606-2.969c3.387-1.824,6.711-3.761,10.082-5.615.564-.31.643-.574.332-1.1q-5.127-8.629-10.219-17.279c-.3-.52-.546-.684-1.11-.358-3.414,1.972-6.934,3.787-10.241,5.918a10.345,10.345,0,0,0-4.09,11.821,11,11,0,0,0,10.9,7.645A8.957,8.957,0,0,0,267.176,172.487ZM247.222,166.5c.777,0,1.047-.174.837-.982a10.332,10.332,0,0,1-.107-4.986c.248-1.056-.023-1.273-1.084-1.263-5.1.05-10.2.023-15.3.023-5.2,0-10.4-.007-15.6.01-.093,0-.191-.008-.289-.017-.443-.039-.9-.078-1,.714a5.568,5.568,0,0,0,5.32,6.454c5.736.044,11.473.042,17.21.04h3.384Q243.908,166.5,247.222,166.5Zm32.324-25.819c-2.863,1.565-5.684,3.2-8.54,4.778-.625.345-.833.606-.412,1.312q5.072,8.491,10.061,17.031c.357.608.675.795,1.377.385,2.9-1.7,5.883-3.255,8.744-5.007a10.5,10.5,0,0,0,4.556-12.163,10.9,10.9,0,0,0-10.764-7.594q-.229-.014-.458-.014A9.619,9.619,0,0,0,279.545,140.683ZM214.672,130.4c.05,8.1.035,16.208.013,24.313,0,.817.294,1.073,1.115,1.072q16.416-.028,32.831,0a1.5,1.5,0,0,0,1.443-.753,15.557,15.557,0,0,1,5.918-5.26c3.025-1.678,6.01-3.428,9.052-5.076a1.969,1.969,0,0,0,1.228-2.008q-.094-5.969,0-11.94c.02-1.14-.321-1.432-1.473-1.425-6.111.036-12.222.032-18.334.029q-2.979,0-5.957,0-12.22,0-24.439,0l-.352,0C215.122,129.339,214.666,129.418,214.672,130.4Zm49.567-4.716c.756.087,1.531.174,1.744-.281.432-.92-.514-1.932-1.157-2.774-2.672-3.494-5.374-6.967-8.016-10.483a2.14,2.14,0,0,0-1.962-.922c-3.057.021-6.115.02-9.173.02q-3.292,0-6.584.007A2.03,2.03,0,0,1,237,110.229c-.629-1.27.324-2.474,2-2.481q3.524-.015,7.048-.007,3.544,0,7.089-.006c.272,0,.508,0,.713.006,1.588.027,1.277.054,1.4-2.077.078-1.334-.357-1.664-1.7-1.654-8.148.062-16.3.031-24.446.031-3.336,0-3.338,0-3.335,3.293,0,1.48.052,2.876-1.066,4.186-2.07,2.427-3.935,5.022-5.864,7.563-1.2,1.577-2.456,3.122-3.5,4.792-.921,1.469-.681,1.749,1.048,1.749h24.151c7.609,0,15.217.01,22.826-.013h.009A7.962,7.962,0,0,1,264.239,125.681ZM224.633,88.63c-1.981.007-2.547.569-2.564,2.5q-.031,3.454,0,6.908c.019,1.831.708,2.489,2.607,2.5,2.75.018,5.5,0,8.248,0q11.562,0,23.124,0c2.218,0,2.819-.578,2.828-2.693q.014-3.238,0-6.476c-.006-2.308-.452-2.741-2.872-2.744q-7.806-.011-15.612,0-4.517,0-9.036,0Q227.995,88.621,224.633,88.63Zm15.805,63.44c-1.206-.015-1.724-.787-1.745-1.9-.026-1.343-.082-2.69,0-4.028.065-1.046-.351-1.313-1.347-1.257-1.321.074-2.65.022-3.975.014-1.206-.008-2.011-.508-2-1.78s.827-1.746,2.031-1.746c1.325,0,2.655-.063,3.975.017,1.066.064,1.364-.348,1.313-1.326-.067-1.292-.028-2.59,0-3.885.023-1.152.5-1.988,1.816-1.966,1.281.021,1.8.809,1.8,1.986,0,1.343.048,2.689-.012,4.029-.039.865.236,1.2,1.156,1.16,1.47-.06,2.945-.03,4.417.005a1.736,1.736,0,0,1,1.81,1.7,1.768,1.768,0,0,1-1.9,1.8c-1.472.029-2.947.057-4.417,0-.86-.034-1.1.277-1.065,1.074.054,1.389.024,2.782.008,4.173a1.706,1.706,0,0,1-1.828,1.933Zm-10.963-42.652a1.675,1.675,0,0,1,1.8-1.664,1.693,1.693,0,0,1,1.8,1.806,1.64,1.64,0,0,1-1.617,1.669A1.783,1.783,0,0,1,229.475,109.418Z" transform="translate(-180.82 -66.59)" fill="#fff" stroke="rgba(0,0,0,0)" stroke-width="1"/>
    </g>
  </g>
</svg>
