<svg xmlns="http://www.w3.org/2000/svg" xmlns:xlink="http://www.w3.org/1999/xlink" width="206.635" height="206.635" viewBox="0 0 206.635 206.635">
  <defs>
    <clipPath id="clip-path">
      <rect id="Rectangle_2339" data-name="Rectangle 2339" width="76.754" height="93.931" fill="#949494"/>
    </clipPath>
  </defs>
  <g id="Group_13610" data-name="Group 13610" transform="translate(-1058.359 -2458.683)">
    <g id="Group_13553" data-name="Group 13553" transform="translate(1126.379 2512.052)">
      <g id="Group_13552" data-name="Group 13552" clip-path="url(#clip-path)">
        <path id="Path_5452" data-name="Path 5452" d="M19.647,9.138a11.409,11.409,0,0,0,10.89-4.483A18.211,18.211,0,0,1,33.9,1.624c2.973-2.2,6.038-2.139,9.047.032a40.37,40.37,0,0,1,5.017,4.724A7.9,7.9,0,0,0,53.75,8.961c2.238.022,4.478.085,6.713.213,3.995.229,6.288,2.345,7.011,6.3a44.2,44.2,0,0,1,.25,7.429,7.492,7.492,0,0,0,2.194,5.384c1.605,1.645,3.267,3.249,4.729,5.016,2.778,3.358,2.78,6.408.186,9.9A46.5,46.5,0,0,1,70.2,48.057a7.8,7.8,0,0,0-2.463,6.016c.049,1.391,0,2.785-.012,4.177-.065,6.756-2.738,9.405-9.542,9.457-1.392.011-2.786.045-4.177.007a7.679,7.679,0,0,0-5.857,2.4,46.953,46.953,0,0,1-5.165,4.832c-3.213,2.348-6.119,2.335-9.332-.034a34.335,34.335,0,0,1-4.6-4.369,8.571,8.571,0,0,0-6.782-2.855,34.339,34.339,0,0,1-6.878-.3c-3.57-.655-5.538-2.574-6.138-6.169a44.381,44.381,0,0,1-.261-7.431,7.608,7.608,0,0,0-2.276-5.533,50.941,50.941,0,0,1-4.967-5.285C-.6,39.722-.621,36.607,1.916,33.5c1.45-1.775,3.118-3.377,4.734-5.011a7.71,7.71,0,0,0,2.337-5.7A44.792,44.792,0,0,1,9.215,15.9c.671-4.373,2.96-6.528,7.348-6.759,1.026-.054,2.056-.008,3.084-.008M12.207,56c0,1.21-.082,2.428.016,3.63.27,3.3,1.489,4.5,4.795,4.714a47,47,0,0,0,4.719.056,12.066,12.066,0,0,1,9.845,4.14,35.234,35.234,0,0,0,3.949,3.738c2.014,1.62,3.532,1.6,5.576,0A23.44,23.44,0,0,0,44.4,69.158a13.086,13.086,0,0,1,11.4-4.777,19.5,19.5,0,0,0,4.889-.162c2.245-.423,3.075-1.333,3.475-3.555a33.385,33.385,0,0,0,.291-6.7,11.106,11.106,0,0,1,3.692-8.547c1.3-1.264,2.61-2.532,3.791-3.9,1.96-2.278,2-4.009.069-6.3-1.359-1.616-2.9-3.084-4.387-4.589a10.47,10.47,0,0,1-3.156-7.656,36.207,36.207,0,0,0-.3-7.061c-.435-2.174-1.181-2.984-3.366-3.453a18.3,18.3,0,0,0-5.245-.244A12.519,12.519,0,0,1,44.494,7.551a18.616,18.616,0,0,0-3.572-3.34c-2.044-1.4-3.293-1.42-5.291.06a14.771,14.771,0,0,0-2.675,2.437,14.029,14.029,0,0,1-13.264,5.5,12.33,12.33,0,0,0-3.973.239,3.742,3.742,0,0,0-3.239,3.174,30.311,30.311,0,0,0-.287,6.691,11.456,11.456,0,0,1-3.746,8.905c-1.057,1-2.093,2.016-3.085,3.076-2.909,3.11-2.925,4.821-.1,7.945A22.307,22.307,0,0,0,7.3,44.3c3.617,3.078,5.478,6.868,4.9,11.7" transform="translate(0 0)" fill="#949494"/>
        <path id="Path_5453" data-name="Path 5453" d="M57.944,217.514c1.517-.785,2.79-1.43,4.052-2.1,3.31-1.753,6.645-3.463,9.906-5.3a2.815,2.815,0,0,1,3.128.044c4.073,2.246,8.207,4.382,12.321,6.552.411.217.846.389,1.462.668,0-4.842,0-9.484,0-14.125a7.132,7.132,0,0,1,.071-1.626,1.554,1.554,0,0,1,1.486-1.357,1.592,1.592,0,0,1,1.658,1.376,4.008,4.008,0,0,1,.062,1.082c0,5.265.013,10.531,0,15.8-.008,2.753-1.41,3.6-3.845,2.317-4.438-2.334-8.889-4.648-13.277-7.074a2.834,2.834,0,0,0-3.124.035c-4.289,2.355-8.629,4.617-12.959,6.9-2.858,1.5-4.139.7-4.143-2.573q-.01-7.625,0-15.251a2.89,2.89,0,0,1,.488-2.065,1.427,1.427,0,0,1,1.635-.473,1.608,1.608,0,0,1,1.083,1.7c-.011,3.389,0,6.778,0,10.168,0,1.673,0,3.346,0,5.31" transform="translate(-34.852 -127.496)" fill="#949494"/>
        <path id="Path_5454" data-name="Path 5454" d="M73.113,91.657c-9.257-.344-16.54-6.688-17.844-15.544a18.338,18.338,0,0,1,12.193-20,17.587,17.587,0,0,1,10.877-.3c1.14.322,1.946.914,1.563,2.18-.345,1.141-1.211,1.2-2.334.929-8.8-2.109-17.008,2.65-18.862,11.086-1.334,6.073.428,11.329,5.343,15.2A14.154,14.154,0,0,0,80.055,86.9c5.578-2.787,8.334-7.516,8.4-13.775,0-.181-.024-.362-.036-.543-.076-1.165.255-2.123,1.58-2.174,1.251-.048,1.582.871,1.645,1.948a18.27,18.27,0,0,1-1,7.136A17.98,17.98,0,0,1,73.113,91.657" transform="translate(-35.064 -35.081)" fill="#949494"/>
        <path id="Path_5455" data-name="Path 5455" d="M107.083,63.2a1.6,1.6,0,0,1-.553,1.494q-9.291,9.3-18.573,18.6c-.646.651-1.019.561-1.6-.034-2.8-2.843-5.635-5.648-8.451-8.473-.787-.789-1.052-1.685-.15-2.523.842-.783,1.656-.42,2.379.306,1.961,1.97,3.98,3.886,5.873,5.919.884.949,1.387.868,2.268-.025,5.176-5.25,10.412-10.442,15.641-15.641,1.195-1.188,2.385-1.2,3-.08a1.955,1.955,0,0,1,.168.454" transform="translate(-49.143 -39.423)" fill="#949494"/>
      </g>
    </g>
    <path id="Path_5457" data-name="Path 5457" d="M740.357,238.671a103.125,103.125,0,0,0-181.783,15.647,103.125,103.125,0,0,0,181.783-15.647" transform="translate(876.733 1928.461) rotate(45)" fill="#4e4949" opacity="0.04"/>
  </g>
</svg>
