<svg xmlns="http://www.w3.org/2000/svg" width="49.544" height="49.484" viewBox="0 0 49.544 49.484">
  <g id="Group_13603" data-name="Group 13603" transform="translate(-556.889 -1253.326)">
    <path id="Path_5324" data-name="Path 5324" d="M1684.617,173.933a1.476,1.476,0,0,1-.323-2.916c4.24-.957,10.224-3.029,14.657-7.462,7.067-7.067,8.28-17.886,8.478-22.044-4.157.2-14.976,1.41-22.043,8.478-4.434,4.434-6.505,10.417-7.462,14.657a1.476,1.476,0,0,1-2.88-.65c1.517-6.719,4.294-12.134,8.254-16.094,8.311-8.311,21.078-9.272,24.793-9.369a2.256,2.256,0,0,1,2.316,2.316c-.1,3.715-1.058,16.482-9.369,24.793-3.96,3.96-9.375,6.737-16.094,8.254a1.468,1.468,0,0,1-.327.037" transform="translate(-1104.474 1115.295)" fill="#76ce07" stroke="rgba(0,0,0,0)" stroke-width="1"/>
    <path id="Path_5325" data-name="Path 5325" d="M1644.368,231.653a1.476,1.476,0,0,1-1.038-2.525l10.988-10.872a1.476,1.476,0,1,1,2.076,2.1l-10.988,10.872a1.47,1.47,0,0,1-1.038.427" transform="translate(-1084.684 1066.43)" fill="#76ce07" stroke="rgba(0,0,0,0)" stroke-width="1"/>
    <path id="Path_5326" data-name="Path 5326" d="M1664.137,237.284a1.476,1.476,0,0,1-1.044-2.519l7.035-7.035a1.476,1.476,0,0,1,2.087,2.087l-7.034,7.034a1.473,1.473,0,0,1-1.044.433" transform="translate(-1096.866 1060.595)" fill="#76ce07" stroke="rgba(0,0,0,0)" stroke-width="1"/>
    <path id="Path_5327" data-name="Path 5327" d="M1713.008,178.047a6.83,6.83,0,1,1,4.829-2,6.785,6.785,0,0,1-4.829,2m0-10.706a3.877,3.877,0,1,0,2.742,6.618h0a3.876,3.876,0,0,0-2.742-6.618" transform="translate(-1123.686 1099.359)" fill="#76ce07" stroke="rgba(0,0,0,0)" stroke-width="1"/>
    <path id="Path_5328" data-name="Path 5328" d="M1712.383,238.965a1.714,1.714,0,0,1-1.714-1.713V228.47a1.476,1.476,0,0,1,2.952,0v5.788l3.905-3.905c.02-1.088.038-3.694.046-6.049a1.476,1.476,0,0,1,1.476-1.471h.006a1.476,1.476,0,0,1,1.47,1.481s-.006,1.661-.018,3.328c-.028,3.936-.028,3.936-.488,4.393l-6.427,6.428a1.709,1.709,0,0,1-1.209.5m5.553-9.022-.008.008Z" transform="translate(-1126.451 1063.346)" fill="#76ce07" stroke="rgba(0,0,0,0)" stroke-width="1"/>
    <path id="Path_5329" data-name="Path 5329" d="M1651.329,179.208h-8.782a1.712,1.712,0,0,1-1.211-2.922l6.432-6.432c.458-.456.458-.456,4.389-.484,1.666-.012,3.327-.018,3.327-.018h.006a1.476,1.476,0,0,1,.005,2.952c-2.356.009-4.962.027-6.049.046l-3.905,3.905h5.788a1.476,1.476,0,0,1,0,2.952" transform="translate(-1083.416 1096.302)" fill="#76ce07" stroke="rgba(0,0,0,0)" stroke-width="1"/>
  </g>
</svg>
