<svg xmlns="http://www.w3.org/2000/svg" xmlns:xlink="http://www.w3.org/1999/xlink" width="206.635" height="206.635" viewBox="0 0 206.635 206.635">
  <defs>
    <clipPath id="clip-path">
      <rect id="Rectangle_2338" data-name="Rectangle 2338" width="92.877" height="77.601" fill="#949494"/>
    </clipPath>
  </defs>
  <g id="Group_13609" data-name="Group 13609" transform="translate(-732.865 -2458.683)">
    <g id="Group_13549" data-name="Group 13549" transform="translate(780.5 2520.052)">
      <g id="Group_13548" data-name="Group 13548" clip-path="url(#clip-path)">
        <path id="Path_5445" data-name="Path 5445" d="M37.518,22.033H29.632c-.4,0-.8,0-1.2,0-1.153-.007-2.171-.29-2.158-1.681.012-1.309.994-1.583,2.085-1.592.948-.008,1.9-.025,2.843,0a73.709,73.709,0,0,1,7.611.143c.79.105.843-.6,1.106-1A38.756,38.756,0,0,1,59.153,2.441c21.359-8.08,45.554,4.666,50.968,26.853,5.11,20.939-6.958,41.6-27.843,46.941-13.921,3.559-26.307.114-36.82-9.777-.182-.171-.363-.343-.532-.525a1.491,1.491,0,0,1-.1-2.255,1.524,1.524,0,0,1,2.367.061c1.07.97,2.105,1.985,3.227,2.892,20.1,16.252,50.837,5.676,56.706-19.5A35.543,35.543,0,0,0,41.461,21.591c-.9,1.659-1.593,3.427-2.4,5.134-.749,1.575-1.592,2.1-2.544,1.535-1.295-.771-.881-1.8-.347-2.852.5-.975.936-1.98,1.39-2.976.034-.075-.014-.188-.037-.4" transform="translate(-18.413 0)" fill="#949494"/>
        <path id="Path_5446" data-name="Path 5446" d="M175.63,52.747q0-5.759,0-11.519a9.845,9.845,0,0,1,.046-1.343,1.56,1.56,0,0,1,3.113.113c.05,1.444.021,2.892.021,4.337,0,6.482.016,12.965-.018,19.447a2.271,2.271,0,0,0,.948,2.013c3.167,2.5,6.276,5.079,9.431,7.6.908.725,1.595,1.557.775,2.625s-1.817.636-2.723-.1c-3.438-2.8-6.871-5.611-10.35-8.361a3.079,3.079,0,0,1-1.259-2.689c.041-4.039.016-8.078.016-12.117" transform="translate(-123.057 -26.962)" fill="#949494"/>
        <path id="Path_5447" data-name="Path 5447" d="M16.309,120.06h13.3c.4,0,.8,0,1.2.007,1.056.028,1.938.371,1.912,1.593-.025,1.182-.845,1.572-1.936,1.569-3.537-.01-7.076.057-10.61-.034-1.278-.033-1.692.352-1.5,1.585.144.933.174,1.883.25,2.825.083,1.021-.241,1.822-1.352,1.959-1.2.148-1.7-.609-1.828-1.684a16.508,16.508,0,0,1-.277-3.118c.112-1.444-.567-1.579-1.751-1.558-3.735.064-7.472.024-11.208.023a9.811,9.811,0,0,1-1.045-.019A1.474,1.474,0,0,1,0,121.627a1.392,1.392,0,0,1,1.368-1.494c.891-.076,1.79-.069,2.685-.07q6.128-.009,12.255,0" transform="translate(0 -84.128)" fill="#949494"/>
        <path id="Path_5448" data-name="Path 5448" d="M74.63,176.7c2.69,0,5.381.015,8.071-.007,1.108-.009,2.091.222,2.135,1.517.048,1.4-.982,1.661-2.146,1.659q-8.22-.012-16.44,0c-1.107,0-2.046-.254-2.043-1.6s.944-1.579,2.054-1.574c2.79.013,5.58,0,8.37,0" transform="translate(-44.991 -123.814)" fill="#949494"/>
        <path id="Path_5449" data-name="Path 5449" d="M27.664,176.78a10,10,0,0,1,1.627.015A1.388,1.388,0,0,1,30.56,178.2a1.353,1.353,0,0,1-1.193,1.6,19.789,19.789,0,0,1-3.543,0,1.365,1.365,0,0,1-1.232-1.452,1.452,1.452,0,0,1,1.3-1.559,11.5,11.5,0,0,1,1.775-.019" transform="translate(-17.232 -123.854)" fill="#949494"/>
        <path id="Path_5450" data-name="Path 5450" d="M274.8,124.408c.945.075,1.641.484,1.659,1.523.019,1.115-.684,1.6-1.721,1.6a1.458,1.458,0,0,1-1.664-1.5c-.024-1.112.677-1.57,1.726-1.619" transform="translate(-191.349 -87.175)" fill="#949494"/>
        <path id="Path_5451" data-name="Path 5451" d="M177.548,218.522c.962.082,1.42.749,1.367,1.788a1.474,1.474,0,0,1-1.616,1.561c-1.118-.025-1.555-.8-1.51-1.806.043-.968.558-1.566,1.758-1.543" transform="translate(-123.177 -153.122)" fill="#949494"/>
      </g>
    </g>
    <path id="Path_5459" data-name="Path 5459" d="M740.357,238.671a103.125,103.125,0,0,0-181.783,15.647,103.125,103.125,0,0,0,181.783-15.647" transform="translate(551.239 1928.461) rotate(45)" fill="#4e4949" opacity="0.04"/>
  </g>
</svg>
