<svg xmlns="http://www.w3.org/2000/svg" xmlns:xlink="http://www.w3.org/1999/xlink" width="206.635" height="206.635" viewBox="0 0 206.635 206.635">
  <defs>
    <clipPath id="clip-path">
      <rect id="Rectangle_2340" data-name="Rectangle 2340" width="72.016" height="80.846" fill="#949494"/>
    </clipPath>
  </defs>
  <g id="Group_13611" data-name="Group 13611" transform="translate(-1398.865 -2458.683)">
    <g id="Group_13555" data-name="Group 13555" transform="translate(1459.5 2512.052)">
      <g id="Group_13554" data-name="Group 13554" clip-path="url(#clip-path)">
        <path id="Path_5456" data-name="Path 5456" d="M71.987,44.708c-.117,2.24.232,5.277-.171,8.3a7.89,7.89,0,0,1-6.572,6.984c-.93.181-1.151.545-1.179,1.4a18.45,18.45,0,0,1-1.848,7.672c-1.976,3.989-5.447,6.008-9.691,6.951a33.119,33.119,0,0,1-6.224.777c-.712.021-1.022.162-1.1.966-.214,2.087-1.373,3.065-3.483,3.078q-4.557.028-9.115,0a3.151,3.151,0,0,1-3.5-3.443q-.023-2.149,0-4.3a3.131,3.131,0,0,1,3.408-3.4q4.622-.025,9.243,0A3.042,3.042,0,0,1,45.139,72.7c.069.879.324,1.15,1.218,1.042a34.621,34.621,0,0,0,7.3-1.267C57.916,71,60,67.864,60.694,63.646c.014-.083.007-.169.019-.252.125-.914.649-1.983.187-2.71-.525-.825-1.719-.21-2.612-.325-1.24-.16-1.744-.656-1.752-2.034-.021-3.5-.008-6.993-.009-10.49q0-8.973,0-17.947c0-1.975.415-2.373,2.4-2.38,2.206-.009,2.247-.013,2.03-2.182A24.73,24.73,0,0,0,40.981,3.445,24.942,24.942,0,0,0,12.075,20.73a24.1,24.1,0,0,0-.956,5.707c-.041.811.164,1.083,1.035,1.091,3.453.032,3.453.063,3.453,3.473q0,13.4,0,26.794c0,2.24-.34,2.607-2.589,2.564a28.232,28.232,0,0,1-5.625-.226C2.97,59.161.559,56.873.284,52.4A122.41,122.41,0,0,1,.338,34.98c.313-3.846,2.7-6.32,6.525-7.133,1.022-.217,1.16-.68,1.187-1.535C8.449,13.616,18.29,2.57,31.088.42,46.212-2.119,60.18,7.066,63.544,21.8a18.159,18.159,0,0,1,.558,4.88c-.03.649.213.939.9,1.1,4.587,1.1,6.842,3.859,6.969,8.557.068,2.526.012,5.055.012,8.371M12.445,43.87c0-4.123-.017-8.246.015-12.368.006-.749-.169-1.075-.991-1.011-.892.07-1.794,0-2.691.032-3.143.12-5.421,2.114-5.494,5.2Q3.09,43.861,3.283,52c.065,2.919,1.958,4.689,4.877,5.093.937.13,1.876.1,2.808.181,1.126.1,1.535-.206,1.509-1.419-.086-3.995-.032-7.992-.033-11.989m47.242.032V54.254c0,3.394,0,3.394,3.491,3.023,3.544-.375,5.5-2.072,5.6-5.4.17-5.34.167-10.688.072-16.03-.051-2.839-1.787-4.531-4.6-5.092a28.007,28.007,0,0,0-3.444-.224c-.908-.069-1.151.24-1.141,1.122.046,4.081.02,8.164.02,12.246M37.066,77.764c1.365,0,2.731-.025,4.1.011.656.017.924-.2.9-.862-.033-1.091-.047-2.186.005-3.276.035-.743-.276-.921-.972-.9-1.62.04-3.243-.021-4.863.023-1.3.036-3.134-.578-3.775.256-.665.864-.179,2.568-.244,3.9-.033.667.219.879.883.86,1.321-.04,2.645-.012,3.968-.012" transform="translate(-0.001 0)" fill="#949494"/>
      </g>
    </g>
    <path id="Path_5458" data-name="Path 5458" d="M740.357,238.671a103.125,103.125,0,0,0-181.783,15.647,103.125,103.125,0,0,0,181.783-15.647" transform="translate(1217.239 1928.461) rotate(45)" fill="#4e4949" opacity="0.04"/>
  </g>
</svg>
