<svg xmlns="http://www.w3.org/2000/svg" width="57.007" height="51.458" viewBox="0 0 57.007 51.458">
  <g id="Group_13605" data-name="Group 13605" transform="translate(-1034.013 -929.158)">
    <path id="Path_5317" data-name="Path 5317" d="M2822.534,180.205a22.123,22.123,0,1,1,21.357-27.911,1.476,1.476,0,0,1-2.85.771,19.171,19.171,0,1,0,0,10.036,1.476,1.476,0,0,1,2.85.77,22.157,22.157,0,0,1-21.357,16.334" transform="translate(-1765.898 793.698)" fill="#76ce07" stroke="rgba(0,0,0,0)" stroke-width="1"/>
    <path id="Path_5318" data-name="Path 5318" d="M2931.69,189.814a1.471,1.471,0,0,1-1.073-.462l-5.661-5.991,5.636-5.636a1.476,1.476,0,1,1,2.087,2.088l-3.607,3.607,3.69,3.9a1.476,1.476,0,0,1-1.072,2.49" transform="translate(-1842.647 768.227)" fill="#76ce07" stroke="rgba(0,0,0,0)" stroke-width="1"/>
    <path id="Path_5319" data-name="Path 5319" d="M2834.065,184.555a14.941,14.941,0,1,1,13.653-21.018,1.476,1.476,0,1,1-2.7,1.2,11.989,11.989,0,1,0,.091,9.542,1.476,1.476,0,1,1,2.719,1.149,14.92,14.92,0,0,1-13.767,9.125" transform="translate(-1777.429 782.167)" fill="#76ce07" stroke="rgba(0,0,0,0)" stroke-width="1"/>
    <path id="Path_5320" data-name="Path 5320" d="M2855.687,252a1.476,1.476,0,0,1-1.476-1.476v-5.485a1.476,1.476,0,0,1,2.952,0v5.485a1.476,1.476,0,0,1-1.476,1.476" transform="translate(-1799.051 727.392)" fill="#76ce07" stroke="rgba(0,0,0,0)" stroke-width="1"/>
    <path id="Path_5321" data-name="Path 5321" d="M2888.228,249.207a1.471,1.471,0,0,1-1.044-.433l-8.4-8.4a1.476,1.476,0,0,1,2.088-2.087l8.4,8.4a1.476,1.476,0,0,1-1.043,2.519" transform="translate(-1813.926 730.909)" fill="#76ce07" stroke="rgba(0,0,0,0)" stroke-width="1"/>
    <path id="Path_5322" data-name="Path 5322" d="M2809.65,249.207a1.476,1.476,0,0,1-1.043-2.519l8.4-8.4a1.476,1.476,0,0,1,2.087,2.087l-8.4,8.4a1.471,1.471,0,0,1-1.043.433" transform="translate(-1770.682 730.909)" fill="#76ce07" stroke="rgba(0,0,0,0)" stroke-width="1"/>
    <path id="Path_5323" data-name="Path 5323" d="M2885.158,192.712H2858.2a1.476,1.476,0,1,1,0-2.952h26.957a1.476,1.476,0,0,1,0,2.952" transform="translate(-1800.601 760.545)" fill="#76ce07" stroke="rgba(0,0,0,0)" stroke-width="1"/>
  </g>
</svg>
