<svg xmlns="http://www.w3.org/2000/svg" width="17.67" height="20.194" viewBox="0 0 17.67 20.194">
  <path id="Path_787" data-name="Path 787" d="M8.835-11.778a5.048,5.048,0,0,0,5.048-5.048,5.048,5.048,0,0,0-5.048-5.048,5.048,5.048,0,0,0-5.048,5.048A5.048,5.048,0,0,0,8.835-11.778Zm3.534,1.262H11.71a6.873,6.873,0,0,1-2.875.631,6.887,6.887,0,0,1-2.875-.631H5.3A5.3,5.3,0,0,0,0-5.215v1.641A1.894,1.894,0,0,0,1.893-1.681H15.776A1.894,1.894,0,0,0,17.67-3.574V-5.215A5.3,5.3,0,0,0,12.369-10.516Z" transform="translate(0 21.875)" fill="#cecece"/>
</svg>
