<svg id="Group_13589" data-name="Group 13589" xmlns="http://www.w3.org/2000/svg" width="27.361" height="27.361" viewBox="0 0 27.361 27.361">
  <path id="Path_14020" data-name="Path 14020" d="M1244.7.008A13.754,13.754,0,0,0,1231.5,12.973a13.617,13.617,0,0,0,1.52,7.015l-1.529,6.844a.439.439,0,0,0,.52.519l6.844-1.528h0a13.6,13.6,0,0,0,6.957,1.523A13.681,13.681,0,0,0,1244.7.008m.456,24.523a10.767,10.767,0,0,1-5.458-1.477q-.226-.127-.439-.269l-4.373,1.165,1.165-4.373a10.848,10.848,0,1,1,9.1,4.953" transform="translate(-1231.479 0)" fill="#505050"/>
  <path id="Path_14021" data-name="Path 14021" d="M1306.247,73.1a5.318,5.318,0,0,1-.7.866,3.263,3.263,0,0,1-2.639.946,11.767,11.767,0,0,1-9.677-9.677,3.264,3.264,0,0,1,.946-2.639,5.64,5.64,0,0,1,.865-.709.95.95,0,0,1,1.438.478l.719,2.157a1.083,1.083,0,0,1-.147,1.216l-.573.577a.852.852,0,0,0-.114,1.064,18.213,18.213,0,0,0,4.4,4.4.851.851,0,0,0,1.064-.114l.577-.573a1.083,1.083,0,0,1,1.216-.147l2.157.719a.946.946,0,0,1,.473,1.438" transform="translate(-1286.132 -54.928)" fill="#505050"/>
</svg>
